<?xml version="1.0" encoding="UTF-8" standalone="no"?>
<!-- Created with Inkscape (http://www.inkscape.org/) -->

<svg
   xmlns:dc="http://purl.org/dc/elements/1.1/"
   xmlns:cc="http://creativecommons.org/ns#"
   xmlns:rdf="http://www.w3.org/1999/02/22-rdf-syntax-ns#"
   xmlns:svg="http://www.w3.org/2000/svg"
   xmlns="http://www.w3.org/2000/svg"
   xmlns:sodipodi="http://sodipodi.sourceforge.net/DTD/sodipodi-0.dtd"
   xmlns:inkscape="http://www.inkscape.org/namespaces/inkscape"
   id="svg2904"
   version="1.1"
   inkscape:version="0.47 r22583"
   width="800"
   height="550"
   sodipodi:docname="Little Big Adventure 2 vectoriel.svg">
  <metadata
     id="metadata2910">
    <rdf:RDF>
      <cc:Work
         rdf:about="">
        <dc:format>image/svg+xml</dc:format>
        <dc:type
           rdf:resource="http://purl.org/dc/dcmitype/StillImage" />
        <dc:title />
      </cc:Work>
    </rdf:RDF>
  </metadata>
  <defs
     id="defs2908">
    <inkscape:perspective
       sodipodi:type="inkscape:persp3d"
       inkscape:vp_x="0 : 0.5 : 1"
       inkscape:vp_y="0 : 1000 : 0"
       inkscape:vp_z="1 : 0.5 : 1"
       inkscape:persp3d-origin="0.5 : 0.33333333 : 1"
       id="perspective2912" />
    <inkscape:perspective
       id="perspective2924"
       inkscape:persp3d-origin="0.5 : 0.33333333 : 1"
       inkscape:vp_z="1 : 0.5 : 1"
       inkscape:vp_y="0 : 1000 : 0"
       inkscape:vp_x="0 : 0.5 : 1"
       sodipodi:type="inkscape:persp3d" />
  </defs>
  <sodipodi:namedview
     pagecolor="#ffffff"
     bordercolor="#666666"
     borderopacity="1"
     objecttolerance="10"
     gridtolerance="10"
     guidetolerance="10"
     inkscape:pageopacity="0"
     inkscape:pageshadow="2"
     inkscape:window-width="1280"
     inkscape:window-height="744"
     id="namedview2906"
     showgrid="false"
     inkscape:zoom="0.85818182"
     inkscape:cx="400"
     inkscape:cy="275"
     inkscape:window-x="-4"
     inkscape:window-y="-4"
     inkscape:window-maximized="1"
     inkscape:current-layer="svg2904" />
  <g
     id="g2836"
     transform="matrix(1.7051961,0,0,1.7051961,-11.119005,-6.3860325)">
    <path
       style="fill:#d5d712"
       d="m 174,276.94949 c -11.26513,-1.00182 -16.81514,-2.80959 -33.5,-10.91176 -7.7,-3.73912 -16.25,-7.57991 -19,-8.53508 -19.02518,-6.60811 -48.939694,-5.83135 -68.560386,1.78023 C 42.364514,263.38535 39.95165,264 34.422205,264 c -3.523306,0 -5.815751,-0.5364 -6.891984,-1.61264 -1.483515,-1.48351 -1.473155,-1.8238 0.129394,-4.25 7.805809,-11.81768 13.148576,-25.16399 15.893652,-39.70257 3.048561,-16.14592 1.039768,-45.02976 -4.502317,-64.73748 -3.982726,-14.16262 -16.232873,-41.45959 -23.605944,-52.60105 -1.454679,-2.198165 -2.466523,-4.531709 -2.248543,-5.185649 0.21798,-0.653941 4.87545,-2.442887 10.349932,-3.975436 C 29.020878,90.402626 37.325,87.493811 42,85.471141 57.038263,78.964736 59.494986,78.164664 68.070612,76.980816 85.7533,74.539758 105.11412,79.533018 121.73763,90.821831 127.7685,94.917316 133,100.22202 133,102.24179 c 0,0.59859 -2.64489,3.84273 -5.87753,7.20919 -3.23264,3.36646 -7.3182,8.97478 -9.07901,12.46293 -5.23436,10.36921 -6.02156,16.36781 -4.87691,37.16304 0.68546,12.45289 0.66165,22.2816 -0.0767,31.65132 -0.78232,9.9283 -0.77098,13.95106 0.0421,14.93075 1.56721,1.88837 17.18705,1.86644 18.75792,-0.0263 0.86545,-1.04281 0.75849,-1.67961 -0.45065,-2.6831 -3.20082,-2.65645 -5.50542,-8.99594 -6.1072,-16.79971 -0.56847,-7.37173 -0.42036,-8.17887 2.70077,-14.71862 2.44545,-5.12397 5.816,-9.53588 12.99092,-17.00454 10.30031,-10.72203 15.95998,-19.29893 20.83819,-31.5791 4.00806,-10.08971 4.45583,-13.12402 3.15026,-21.34761 -3.32503,-20.94382 -11.74192,-44.768708 -21.47735,-60.793829 -7.24288,-11.922239 -6.88949,-19.417278 0.9881,-20.957081 8.05085,-1.573666 18.16393,-2.662413 25.1277,-2.705178 9.4551,-0.05806 27.52051,-3.225014 39.49093,-6.922945 22.79412,-7.0416076 39.4222,-4.2890367 53.2257,8.810847 15.63866,14.841496 24.48586,34.439711 23.18104,51.35039 -0.69536,9.012065 -2.88681,15.433859 -8.59437,25.184876 l -4.07804,6.96708 2.81206,1.95669 c 5.70519,3.96981 13.91588,13.292 17.27111,19.60915 1.89879,3.575 4.64689,10.75404 6.10689,15.95342 1.46,5.19937 3.09765,9.60111 3.63923,9.78164 1.17775,0.39258 4.37946,-10.12121 7.68471,-25.23506 2.44031,-11.15876 3.98563,-23.7186 5.19627,-42.233438 0.80537,-12.316986 1.62082,-13.825516 6.93465,-12.828635 5.14983,0.966114 26.67884,12.183625 38.64787,20.137151 C 366.48645,93.108785 371.29133,96 371.8462,96 c 0.55486,0 2.05396,-1.303192 3.33132,-2.895982 1.27736,-1.59279 6.32003,-7.457743 11.20592,-13.033228 4.88589,-5.575485 8.68428,-10.3364 8.44087,-10.579811 -0.24341,-0.243412 -2.81715,1.341664 -5.71943,3.522391 -6.50475,4.887579 -7.7493,4.445058 -11.95458,-4.250664 -5.30018,-10.95975 -7.28412,-23.139192 -5.06881,-31.117405 3.88825,-14.003119 28.44563,-23.083672 50.11929,-18.532549 6.18749,1.299275 18.78715,6.877926 23.28847,10.311254 4.97727,3.796346 9.5246,13.353183 10.20278,21.442543 0.5045,6.017625 0.24951,7.581383 -2.0581,12.621866 C 452.18527,66.652714 451,69.570924 451,69.973326 c 0,0.402403 2.6254,2.79427 5.83421,5.31526 6.81564,5.354666 12.59878,13.345942 14.2688,19.71696 0.98509,3.758017 0.90197,5.465484 -0.50094,10.291344 -4.72218,16.24374 -21.28776,21.97302 -48.48663,16.76932 C 409.10775,119.57757 398,118.37667 398,119.459 c 0,0.41152 3.36143,4.92752 7.46984,10.03555 26.09829,32.44829 36.62498,59.40516 35.29526,90.38449 -0.54965,12.80571 -2.71657,19.9299 -8.4833,27.89064 -8.57766,11.84112 -24.83552,19.85492 -45.93611,22.64275 -9.29624,1.22823 -35.46094,1.25241 -37.43141,0.0346 -0.49192,-0.30402 0.28265,-2.87553 1.72125,-5.71447 C 356.14705,253.85608 361,237.64069 361,230.10123 c 0,-2.86297 -6.2151,-11.17152 -7.45368,-9.96432 -0.35941,0.35029 -1.77097,5.04075 -3.1368,10.42322 -5.15821,20.3274 -15.33032,35.43856 -27.54574,40.92051 -15.51299,6.96182 -35.41655,1.10621 -58.02965,-17.07226 C 257.29821,248.35032 242,231.74296 242,229.62022 c 0,-0.76825 2.925,-3.23079 6.5,-5.47231 7.64569,-4.79383 8.4291,-6.712 2.34389,-5.73894 -6.35007,1.01542 -13.96506,-1.0114 -40.34001,-10.73697 -4.02541,-1.48434 -7.36959,-2.20629 -7.87567,-1.70021 -0.50608,0.50608 1.52425,3.71304 4.7815,7.55251 3.11359,3.67012 7.10764,9.44106 8.87568,12.82432 3.05184,5.83992 3.21461,6.70834 3.21461,17.15138 0,9.48131 -0.30948,11.579 -2.24161,15.19371 -4.79818,8.97668 -15.8933,16.39268 -27.29202,18.24205 -3.5565,0.57702 -6.69137,0.98625 -6.96637,0.90939 -0.275,-0.0769 -4.325,-0.47991 -9,-0.89566 z m 46.40662,-116.8463 c 2.31782,-2.56117 3.17188,-11.87342 1.635,-17.82725 -3.35198,-12.98547 -5.46254,-13.7716 -6.41188,-2.38824 -0.36179,4.33823 -1.32162,10.07573 -2.13295,12.75 -1.92511,6.34546 -1.87338,8.11724 0.25321,8.67297 3.50929,0.91708 4.97444,0.6513 6.65662,-1.20748 z m 1.03668,-68.325696 c 1.85142,-2.643277 2.13297,-13.790085 0.43174,-17.093235 C 220.02041,71.083269 216.76874,68 214.82569,68 c -2.21297,0 -2.24359,0.564098 -0.32569,6 0.84639,2.398933 1.5,7.682574 1.5,12.125727 C 216,93.256745 216.18343,94 217.9433,94 c 1.06881,0 2.64381,-1.000128 3.5,-2.222506 z"
       id="path2848" />
    <path
       style="fill:#c5b50d"
       d="m 317,272.07258 c 0,-0.51008 1.03841,-1.74758 2.30758,-2.75 2.29372,-1.81163 2.2652,-1.82345 -4.75,-1.96696 -12.36893,-0.25303 -22.81547,-6.37084 -39.32128,-23.02773 l -11.26371,-11.3668 -7.73629,-1.48037 c -4.25497,-0.81421 -8.94724,-1.48045 -10.42728,-1.48055 -4.69295,-3e-4 -4.01078,-1.7328 2.15776,-5.47999 6.90423,-4.1941 7.65101,-5.07086 6.00669,-7.05215 -0.9424,-1.13552 -0.90735,-1.53757 0.16391,-1.88024 0.74944,-0.23973 3.16262,-0.98829 5.36262,-1.66346 5.24988,-1.61116 8.27639,-3.64444 9.04925,-6.0795 0.34498,-1.08693 1.8555,-3.40917 3.3567,-5.16054 1.50121,-1.75136 4.049,-4.97431 5.66176,-7.1621 l 2.93229,-3.97782 -3.5,2.30374 c -11.58345,7.62435 -26.00548,11.36408 -35.57018,9.2236 -6.36632,-1.42472 -18.92902,-5.68463 -28.36749,-9.61918 -5.68316,-2.36911 -7.41445,-2.63236 -14.77188,-2.2462 -4.58382,0.24059 -8.75603,0.85925 -9.27158,1.3748 -0.58316,0.58316 1.69237,2.99381 6.02188,6.37945 3.82759,2.99315 6.95925,6.0597 6.95925,6.81457 0,0.75487 2.49093,4.30865 5.53539,7.89729 3.04446,3.58864 6.98196,9.29292 8.75,12.67618 3.05184,5.83992 3.21461,6.70834 3.21461,17.15138 0,12.63764 -1.57607,16.94424 -8.19882,22.40327 -4.49722,3.70699 -5.92056,3.97166 -3.7786,0.70262 2.7557,-4.20573 1.03269,-7.48109 -5.41075,-10.28559 -3.08651,-1.34339 -6.34204,-2.83306 -7.23451,-3.31038 -1.2057,-0.64483 -2.49057,0.0363 -5,2.65041 -5.27923,5.49954 -12.21761,8.57592 -20.57842,9.12419 -11.23052,0.73645 -20.13649,-1.86003 -38.99547,-11.36889 -22.26779,-11.2276 -39.201966,-15.33428 -57.116608,-13.85124 -14.160128,1.17223 -31.598945,6.38718 -37.244655,11.13773 -4.237272,3.56543 -4.862702,2.07744 -1.686085,-4.01143 11.241367,-21.5472 13.786751,-51.09576 7.17684,-83.31368 -1.528088,-7.44818 -7.036479,-25.14084 -9.86904,-31.69883 C 27.357556,121.93962 17.728193,103.46569 15.442487,100.74928 14.046711,99.090494 13.038652,97.060639 13.202356,96.238489 13.394116,95.275438 17.057397,93.748499 23.5,91.946198 29,90.407586 37.325,87.493811 42,85.471141 57.038263,78.964736 59.494986,78.164664 68.070612,76.980816 85.7533,74.539758 105.11412,79.533018 121.73763,90.821831 127.60025,94.803055 133,100.21132 133,102.10195 c 0,0.52167 -2.67331,3.82211 -5.94069,7.33429 -3.26738,3.51219 -7.35293,9.18344 -9.07901,12.60278 -5.16816,10.23808 -5.95548,16.29581 -4.81375,37.03793 0.68546,12.45289 0.66165,22.2816 -0.0767,31.65132 -0.78232,9.9283 -0.77098,13.95106 0.0421,14.93075 1.66926,2.01132 17.19658,1.85496 18.89397,-0.19028 1.05106,-1.26644 0.94281,-1.77111 -0.62598,-2.91823 -1.04325,-0.76285 -1.54967,-1.73413 -1.12539,-2.15842 0.42429,-0.42428 1.4616,0.21393 2.30513,1.41824 1.13006,1.61338 2.50574,2.16965 5.227,2.11359 3.73512,-0.0769 10.6933,-2.13322 10.6933,-3.16008 0,-0.30675 -2.74411,-2.57782 -6.09801,-5.04683 -3.35391,-2.46901 -7.10311,-6.11538 -8.33156,-8.10306 C 131.56457,183.55939 129.58749,183.03374 128,186 c -1.8316,3.42238 -3,2.2123 -3,-3.10703 0,-8.37914 4.63231,-16.60847 16.02373,-28.46626 13.77589,-14.33989 23.46928,-32.2345 24.71468,-45.62487 l 0.52997,-5.69816 3.02397,0.60479 3.02396,0.60479 -0.64783,-6.906629 C 170.13235,81.029718 160.80177,51.6292 151.86304,35 c -4.54048,-8.446892 -6.74688,-11.273017 -8.29994,-10.631201 -4.74541,1.961078 -4.74622,1.961008 -4.4011,-0.375915 0.1859,-1.258746 1.013,-2.624426 1.838,-3.034845 3.48267,-1.732548 12.45639,-3.032675 27,-3.911805 17.41735,-1.052841 27.67737,-2.791363 41.39725,-7.014605 22.55292,-6.9422241 39.22918,-4.1402281 52.97001,8.900185 15.63866,14.841496 24.48586,34.439711 23.18104,51.35039 -0.69536,9.012065 -2.88681,15.433859 -8.59437,25.184876 l -4.07804,6.96708 2.81206,1.95669 c 5.70519,3.96981 13.91588,13.292 17.27111,19.60915 1.89879,3.575 4.64689,10.75404 6.10689,15.95342 1.46,5.19937 3.09765,9.60111 3.63923,9.78164 1.17403,0.39134 4.36018,-10.05647 7.70483,-25.26516 2.19706,-9.9904 2.94218,-16.00423 5.55566,-44.839679 0.87813,-9.688695 1.71032,-10.986225 6.53433,-10.188208 4.57231,0.756379 26.67766,12.230643 38.1604,19.807987 5.62593,3.7125 10.67125,6.75 11.21181,6.75 0.54056,0 2.02795,-1.303192 3.30531,-2.895982 1.27736,-1.59279 6.32003,-7.457743 11.20592,-13.033228 4.88589,-5.575485 8.68428,-10.3364 8.44087,-10.579811 -0.24341,-0.243412 -2.79592,1.325714 -5.67225,3.486947 -2.87633,2.161232 -5.83714,3.696416 -6.57957,3.411519 C 381.25727,75.884747 378,68.642441 378,66.22284 c 0,-0.665663 1.9125,-2.597814 4.25,-4.29367 4.30449,-3.122909 5.57014,-3.263301 12.80772,-1.420695 2.27351,0.57881 2.68005,0.252572 3.65864,-2.935944 0.98506,-3.209641 0.87665,-3.744187 -1.03023,-5.07982 -3.28563,-2.301344 -7.26573,-1.825662 -10.51993,1.257289 -6.28596,5.955153 -9.53468,8.322577 -10.77016,7.84848 -3.24275,-1.244359 -5.5258,-22.543964 -2.9444,-27.469604 6.29781,-12.017025 29.29571,-19.101034 48.74914,-15.016124 6.18749,1.299275 18.78715,6.877926 23.28847,10.311254 4.97727,3.796346 9.5246,13.353183 10.20278,21.442543 0.5045,6.017625 0.24951,7.581383 -2.0581,12.621866 C 452.18527,66.652714 451,69.570924 451,69.973326 c 0,0.402403 2.6254,2.79427 5.83421,5.31526 6.81564,5.354666 12.59878,13.345942 14.2688,19.71696 0.98364,3.752488 0.90214,5.464934 -0.48763,10.245544 -2.67131,9.18899 -8.84682,14.84924 -19.26029,17.65329 -4.20784,1.13306 -9.87766,0.15466 -7.52606,-1.29872 0.64403,-0.39803 1.17097,-2.63214 1.17097,-4.96468 0,-2.33254 0.5625,-4.84721 1.25,-5.58816 1.02397,-1.10357 0.91027,-1.22689 -0.62875,-0.68198 -9.46933,3.35276 -23.80292,3.24736 -37.87461,-0.2785 -11.92194,-2.98722 -24.05475,-3.64142 -31.61461,-1.70468 -3.46146,0.88679 -7.11204,1.61234 -8.11239,1.61234 -2.77221,0 -14.47229,7.47799 -14.87094,9.50462 -0.38998,1.98255 -0.972,2.0165 16.3513,-0.95383 4.95,-0.84875 13.17662,-1.54489 18.28138,-1.54698 7.93236,-0.003 9.37391,0.25055 9.91795,1.74619 0.35011,0.9625 3.92242,5.86343 7.93846,10.89095 26.04443,32.60396 36.4534,59.34343 35.12731,90.23809 -0.39912,9.2986 -0.99473,12.8299 -2.98041,17.67042 -4.56712,11.13335 -11.81152,18.9113 -22.76316,24.43967 -7.69598,3.88492 -17.64193,7.0269 -21.93669,6.92992 l -3.58484,-0.081 3.9887,-1.85651 3.9887,-1.85652 -12.3269,-0.31253 c -9.67401,-0.24528 -12.57693,-0.009 -13.4887,1.09594 -2.38036,2.88576 -9.09393,5.04737 -15.74513,5.06956 -3.62084,0.0121 -6.86314,-0.25785 -7.20513,-0.59983 -0.34199,-0.34199 0.53952,-2.91355 1.95891,-5.71458 C 356.0902,253.96827 361,237.62471 361,230.27901 c 0,-1.42462 -1.125,-4.06518 -2.5,-5.8679 -3.07294,-4.02883 -3.31315,-5.91666 -0.56574,-4.44629 2.46817,1.32092 14.09044,1.32227 16.06574,0.002 C 377.85022,217.39298 365.97043,212 356.45078,212 c -3.74042,0 -3.98457,0.46582 -2.41203,4.60193 0.73078,1.92208 0.71889,2.92982 -0.0401,3.3989 -0.59337,0.36672 -2.20242,5.09451 -3.57567,10.5062 -4.79926,18.91287 -14.81602,34.61801 -25.54797,40.0563 -5.0142,2.5409 -7.87501,3.08917 -7.87501,1.50925 z m -5.1383,-86.48152 c 7.05364,-12.49836 16.19346,-38.46325 14.76545,-41.94646 -0.25809,-0.62953 -0.51057,-0.2446 -0.56107,0.8554 -0.18349,3.99668 -9.00027,28.40893 -13.48601,37.34057 -5.0809,10.11668 -5.47632,12.18112 -0.71837,3.75049 z M 132,178.80968 c 0,-1.31439 -2.27278,-0.49134 -2.77106,1.0035 -0.24358,0.73075 0.21359,0.95424 1.1875,0.58051 C 131.2874,180.05947 132,179.34667 132,178.80968 z m 241.08003,-7.32231 c -1.11081,-3.16046 -2.76405,-6.88237 -3.67386,-8.27092 -1.45555,-2.22145 -1.76536,-2.32599 -2.57988,-0.87054 -0.50912,0.90975 -1.75083,1.65409 -2.75935,1.65409 -1.00852,0 -2.06222,0.87394 -2.34155,1.9421 -0.59314,2.26818 -0.0164,3.0579 2.23307,3.0579 0.89382,0 3.60325,2.01557 6.02096,4.47903 2.41772,2.46347 4.55884,4.31605 4.75805,4.11683 0.19922,-0.19922 -0.54663,-2.94804 -1.65744,-6.10849 z M 220.59501,159.89359 c 2.71878,-3.00624 2.71968,-17.65173 0.001,-23.67969 -2.87584,-6.37747 -4.21082,-5.39 -4.96672,3.6738 -0.36179,4.33823 -1.32162,10.07573 -2.13295,12.75 -1.92511,6.34546 -1.87338,8.11724 0.25321,8.67297 3.5668,0.93211 4.98622,0.63825 6.84501,-1.41708 l 4.5e-4,0 z M 39.561429,138.91109 c -3.584469,-11.94895 -5.56577,-17.03458 -11.145408,-28.60818 -4.441193,-9.21217 -5.181637,-10.2022 -7.666021,-10.25 -1.5125,-0.0291 -2.75,0.37298 -2.75,0.89351 0,0.52054 1.657021,3.7737 3.682269,7.22926 4.237611,7.23039 16.407276,32.44994 18.44316,38.22031 2.465465,6.98794 2.025315,1.14666 -0.564,-7.4849 z M 331.91553,117 c 1.09698,-8.525 2.28888,-20 2.64868,-25.5 0.6114,-9.34613 0.51626,-10.124561 -1.45502,-11.904988 L 331,77.690025 330.98119,95.095012 C 330.96828,107.04583 330.34744,116.73047 329,126 c -1.07931,7.425 -1.93061,14.175 -1.89178,15 0.18816,3.9971 3.03094,-10.19518 4.80731,-24 z M 83.948027,138.02782 c 1.180892,-0.632 2.049409,-2.64406 2.482021,-5.75 1.04644,-7.51294 6.065477,-16.9156 10.648173,-19.94828 3.460759,-2.29022 4.997689,-2.60469 13.296639,-2.72061 8.97614,-0.12539 9.60584,-0.28257 14.50243,-3.62 2.81536,-1.91891 5.11971,-3.7552 5.12078,-4.08064 0.003,-0.887 -6.57762,-2.671256 -14.87093,-4.032134 -6.15992,-1.010802 -8.32457,-1.925248 -13.15777,-5.558429 C 90.685046,83.835149 79.728592,81.052942 65.691162,83.105485 58.93257,84.093722 55.214752,85.487013 42.909295,91.643223 34.821417,95.68945 27.660003,99 26.995042,99 c -0.757679,0 -0.941595,0.653294 -0.492661,1.75 0.393997,0.9625 0.789287,2.65 0.878423,3.75 0.11713,1.44548 0.789282,1.9323 2.424253,1.75583 1.255131,-0.13547 2.020717,1.41857 2.828527,1.23169 12.399196,-2.86838 5.079924,7.79819 15.404632,13.39743 5.578792,3.02546 8.006466,7.00529 11.39439,11.86505 2.176318,3.12179 16.608986,1.38703 20.486227,4.6522 1.851403,1.55914 1.661365,1.89284 4.029194,0.62562 z M 219.47792,123.4413 c 1.55668,-1.17669 1.74745,-1.86046 0.89576,-3.21067 -1.30809,-2.07375 -6.60312,-3.7403 -8.98266,-2.82719 -1.48684,0.57056 -1.26342,1.13299 1.63999,4.12855 3.82027,3.94152 3.77583,3.92836 6.44691,1.90931 z m 44.85501,-28.692503 c 2.89646,-5.927774 1.50139,-6.294502 -2.67326,-0.702728 -3.59141,4.810552 -3.67968,5.09419 -1.48872,4.783841 1.53149,-0.216936 2.95672,-1.614464 4.16198,-4.081113 z M 221.4433,91.777494 C 222.49937,90.269742 223,87.258779 223,82.414998 c 0,-6.448647 -0.29435,-7.510386 -3.04001,-10.965349 -2.61962,-3.296354 -2.82177,-3.947498 -1.46181,-4.70857 0.86802,-0.485766 2.91102,-0.590476 4.54002,-0.23269 3.38575,0.743637 3.51141,0.455115 1.49772,-3.438933 -1.39974,-2.706802 -5.11485,-6.24865 -9.15196,-8.725141 -1.811,-1.110926 -1.81405,-1.208786 -0.079,-2.526776 0.99273,-0.7541 2.20785,-2.934042 2.70027,-4.844315 1.87294,-7.265829 4.69665,-13.830224 7.25906,-16.875483 3.03109,-3.602245 4.8227,-9.04904 4.00501,-12.175895 -0.32862,-1.256653 0.0139,-2.487495 0.83729,-3.008891 3.10904,-1.968708 -10.1495,-0.794581 -18.18037,1.609986 -17.43947,5.221645 -27.43429,6.767358 -45.92623,7.102561 -9.625,0.174473 -17.66591,0.33011 -17.86869,0.34586 -0.20278,0.01575 0.84932,1.625525 2.33799,3.577277 5.1741,6.783588 17.59814,36.10277 23.18731,54.719119 l 1.43142,4.767758 c 5.61194,-5.772925 15.66919,-8.899753 19.21138,-15.99858 -0.32687,-1.249962 0.15072,-2.876838 1.17765,-4.011588 1.60142,-1.769552 1.61056,-2.143336 0.12523,-5.120756 -3.18772,-6.38994 -1.24028,-8.165091 5.62565,-5.127963 6.00591,2.6567 11.77206,7.898343 11.77206,10.701237 0,1.248874 0.675,4.183835 1.5,6.522134 0.84639,2.398933 1.5,7.682574 1.5,12.125727 C 216,93.256745 216.18343,94 217.9433,94 c 1.06881,0 2.64381,-1.000128 3.5,-2.222506 z M 416.13169,85.179715 C 417.7468,84.506903 425,75.612103 425,74.304256 c 0,-0.373141 -1.2375,0.461735 -2.75,1.85528 -1.5125,1.393545 -4.95221,4.177736 -7.6438,6.187091 -4.16284,3.107684 -4.53625,3.642875 -2.5,3.583088 1.31659,-0.03866 3.12806,-0.376157 4.02549,-0.75 z M 28.507079,262.01145 c -0.350339,-0.56686 0.05106,-0.7345 0.940983,-0.39301 1.732417,0.66479 2.049387,1.38156 0.610955,1.38156 -0.517541,0 -1.215913,-0.44485 -1.551938,-0.98855 z M 36.5,261.16715 c 2.75,-1.02476 7.475,-2.8002 10.5,-3.94542 6.07734,-2.3008 20.010915,-4.76788 22.141104,-3.92031 0.804049,0.31992 0.479178,0.57292 -0.795656,0.61963 -1.185004,0.0434 -6.585004,1.89418 -12,4.1128 C 48.841727,261.10826 44.716135,262.18218 39,262.54902 l -7.5,0.48132 5,-1.86319 z m 220.52906,-14.6379 c -4.08149,-4.10891 -7.22023,-7.6129 -6.97498,-7.78665 0.24526,-0.17375 3.97506,3.18809 8.28844,7.47075 4.31339,4.28266 7.45213,7.78665 6.97498,7.78665 -0.47716,0 -4.20696,-3.36184 -8.28844,-7.47075 z"
       id="path2846"
       sodipodi:nodetypes="csscccssssssscccsssssssssssssssssssssssssssssssssssssssssssscccccsssssssscccssssssssssssssssssssssssssssssssssssssssssssscccccsssssssssssssccsssccssccsssssssccsssscccsssssccscccssccsssssssssssssssssccsssccssccssssssssssssssscccsssssssccssssccssccssssccccsssc" />
    <path
       style="fill:#aa930c"
       d="m 320.5,270.41313 c 1.1,-0.82378 3.88911,-2.81462 6.19802,-4.42408 2.30891,-1.60946 4.69974,-3.86375 5.31294,-5.00954 0.93837,-1.75335 0.46861,-1.61506 -2.96648,0.87331 -10.77831,7.80777 -24.07731,5.75792 -40.02799,-6.16974 -5.94694,-4.44702 -13.5002,-11.72 -19.11578,-18.40645 -3.04987,-3.63146 -4.44772,-4.42571 -9.97385,-5.66705 -3.53477,-0.79402 -8.78936,-1.74823 -11.67686,-2.12046 -2.8875,-0.37224 -5.25,-0.97943 -5.25,-1.34933 0,-0.36989 2.50183,-2.16894 5.55962,-3.99788 3.0578,-1.82895 5.95153,-4.35613 6.43051,-5.61595 0.57529,-1.51314 2.46933,-2.83524 5.5803,-3.89526 10.5442,-3.59277 12.70548,-5.63084 18.80346,-17.73155 C 282.46825,190.75876 285,185.33469 285,184.84566 c 0,-0.48903 -2.43182,1.54268 -5.40403,4.5149 -6.63196,6.63195 -15.50303,10.99513 -25.69911,12.63994 -6.88646,1.1109 -8.31074,1.02588 -15.93928,-0.95153 -4.6074,-1.1943 -13.3452,-4.20746 -19.41734,-6.69591 -10.75433,-4.4073 -11.27854,-4.51577 -20.2419,-4.18876 -10.19373,0.37189 -13.37862,1.81334 -9.79834,4.43464 5.31903,3.89432 13.48646,10.99158 13.49283,11.72488 0.004,0.4531 2.4981,3.75998 5.54256,7.34862 8.62214,10.1633 11.72803,17.09275 12.24863,27.32756 0.52182,10.25882 -0.82474,15.83784 -4.95918,20.54672 -3.28683,3.74348 -4.72603,4.00568 -2.86123,0.52127 1.04263,-1.94817 0.58968,-2.36017 -6.14076,-5.58565 C 201.82631,254.56705 198.03633,253 197.40066,253 c -0.63568,0 -1.7242,-0.68491 -2.41894,-1.52202 -1.09686,-1.32165 -1.83982,-0.9371 -5.64333,2.9209 -6.97187,7.07177 -12.13419,9.11381 -22.83839,9.03411 -12.86206,-0.0958 -19.74035,-2.43413 -40.56676,-13.79118 -9.27759,-5.05925 -23.66623,-9.51421 -35.038505,-10.84848 -18.569942,-2.17875 -41.446159,2.00235 -52.815023,9.65303 -2.780461,1.87111 -5.258718,3.07302 -5.507238,2.67091 -0.248519,-0.40212 0.579673,-2.54715 1.840426,-4.76675 11.340078,-19.96456 13.672059,-54.61298 5.997406,-89.10908 -0.899357,-4.04244 -1.393257,-7.59182 -1.097555,-7.88752 0.747711,-0.74772 4.256702,11.19163 6.802665,23.14608 2.523642,11.84964 -0.324125,13.09443 3.854175,8.88592 l 4.723125,-4.75728 c 4.002418,-4.03136 4.643548,5.29193 18.439882,0.75399 6.172983,-2.03044 7.275078,2.53569 11.730394,3.61737 1.573209,0.38195 1.944264,-1.13123 2.52755,-9.25 0.365507,-5.0875 0.620503,-16.14501 0.566658,-24.57224 -0.112922,-17.67326 1.334706,-24.22425 6.582664,-29.7887 C 97.695905,114.04268 97.845476,114 106.41774,114 c 9.51882,0 12.17617,-0.92076 19.18525,-6.64761 5.89645,-4.81775 6.3968,-4.12866 1.10782,1.52569 -5.65364,6.0442 -11.44199,17.33783 -13.20504,25.76433 -1.05391,5.03714 -1.12501,10.15883 -0.33922,24.43454 0.68546,12.45289 0.66165,22.2816 -0.0767,31.65132 -0.78232,9.9283 -0.77098,13.95106 0.0421,14.93075 1.47981,1.78306 16.94271,1.8663 18.7083,0.10071 0.68215,-0.68215 3.3931,-1.31808 6.02433,-1.41318 5.09925,-0.1843 12.1354,-2.61759 12.1354,-4.19675 0,-0.52374 -1.47457,-1.82226 -3.27681,-2.88562 -8.88036,-5.23953 -14.23016,-12.21292 -13.86138,-18.06807 0.1893,-3.00538 0.0293,-3.20819 -1.77116,-2.24462 -1.0886,0.58259 -2.25588,1.50685 -2.59397,2.05389 C 127.37883,180.81409 126,180.0388 126,177.60155 c 0,-4.67008 6.0845,-13.99995 15.37207,-23.57127 5.22987,-5.38966 11.0415,-12.60164 13.37636,-16.59949 5.30238,-9.07898 10.23824,-21.52259 10.96238,-27.63687 0.52347,-4.41985 0.78144,-4.79392 3.30604,-4.79392 4.64303,0 5.10879,-1.62241 3.43562,-11.967363 -0.82838,-5.12176 -1.3137,-9.504745 -1.07847,-9.739966 0.64117,-0.641172 4.63087,17.014789 4.5942,20.331119 -0.0175,1.58191 -0.6925,3.74972 -1.5,4.81734 -0.80751,1.06762 -1.47769,2.86762 -1.48929,4 -0.0116,1.13238 -1.13464,5.20887 -2.49564,9.05887 -2.81445,7.9615 -3.22428,11.05995 -1.09122,8.25 0.73064,-0.9625 1.84133,-1.75 2.46819,-1.75 11.13612,-6.40031 24.38717,-13.77658 34.54885,-23.5 1.53316,-1.53316 3.77447,-2.56304 5.79546,-2.663 2.10103,-0.10392 1.302,-0.37575 -2.20455,-0.75 l -5.5,-0.587 -0.61507,-12 c -0.63033,-12.297752 -2.46767,-19.288735 -7.15919,-27.24027 -1.47134,-2.493731 -1.70393,-3.68154 -0.88187,-4.5036 1.44018,-1.440181 10.02045,2.449042 13.56487,6.148616 3.65742,3.817518 6.56302,14.128906 6.57836,23.345254 0.0117,7.048859 0.19175,7.75 1.98985,7.75 2.94264,0 4.71692,-3.69961 5.35987,-11.17607 0.51319,-5.967479 0.3135,-7.060118 -1.88135,-10.294409 C 218.61965,68.350707 218.53218,68 220.32569,68 c 1.77673,0 5.38617,4.013027 5.83596,6.488516 0.19873,1.093685 1.20902,2.151769 2.24509,2.351299 1.64216,0.31625 1.79794,-0.06707 1.21456,-2.988516 -0.36807,-1.843215 -2.01623,-6.230996 -3.6626,-9.750626 -1.64636,-3.51963 -2.77462,-6.618087 -2.50725,-6.885459 0.26737,-0.267372 1.58393,0.233176 2.92569,1.112329 3.55422,2.328813 7.5022,11.170511 8.26667,18.513629 0.65993,6.33892 0.66063,6.340064 1.97173,3.221865 0.72137,-1.715619 4.909,-6.659178 9.30585,-10.985687 9.65048,-8.9367 13.52286,-20.1688 17.07861,-31.609469 0,-5.616597 -9.28291,-17.066735 -16.9802,-20.944473 -9.64447,-4.85869 -20.8341,-5.043949 -35.32043,-0.584777 -17.17966,5.28823 -23.07527,6.182355 -46.19937,7.006572 -12.1,0.431282 -22.83314,1.135705 -23.85142,1.565382 -1.44953,0.611648 -1.77514,0.392949 -1.5,-1.007493 0.70058,-3.565929 7.98113,-5.195294 28.85142,-6.456858 17.41735,-1.052841 27.67737,-2.791363 41.39725,-7.014605 22.55292,-6.9422241 39.22918,-4.1402281 52.97001,8.900185 15.63866,14.841496 24.48586,34.439711 23.18104,51.35039 -0.70378,9.121156 -2.99426,15.767438 -8.68625,25.204883 l -4.12776,6.843923 2.88285,2.00827 c 5.77639,4.02397 13.97134,13.31468 17.34192,19.66072 1.89879,3.575 4.64689,10.75404 6.10689,15.95342 1.46,5.19937 3.09765,9.60111 3.63923,9.78164 1.17457,0.39152 4.36562,-10.07433 7.6942,-25.23506 2.1028,-9.57767 3.54182,-20.23196 6.41559,-47.5 l 0.68503,-6.5 4.82276,0.0674 c 3.83545,0.0536 7.20487,1.281913 16.45877,6 6.39981,3.26293 16.24217,8.9701 21.87192,12.6826 5.62976,3.7125 10.6782,6.75 11.21876,6.75 0.54056,0 2.02795,-1.303192 3.30531,-2.895982 1.27736,-1.59279 6.32003,-7.457743 11.20592,-13.033228 4.88589,-5.575485 8.60982,-10.410865 8.27539,-10.745289 -0.33442,-0.334424 -2.6077,1.030528 -5.05173,3.033227 -7.26546,5.953498 -10.19981,3.990053 -5.07938,-3.398735 2.04724,-2.95416 3.66299,-3.963138 8.5,-5.307948 C 397.85581,62.309719 399,61.596646 399,59.930061 c 0,-1.133849 0.44884,-2.900211 0.99742,-3.925248 0.79868,-1.492336 0.47291,-2.276291 -1.63485,-3.934259 C 393.98873,48.630094 390.84932,49.370492 383.82112,55.5 380.3526,58.525 377.19134,61 376.7961,61 375.8975,61 373,51.407674 373,48.432806 c -2.41021,-7.567645 -1.98728,-13.831345 13.06259,-25.345476 11.06435,-4.886693 24.66886,-6.382954 36.13819,-3.974578 6.18749,1.299275 18.78715,6.877926 23.28847,10.311254 4.97727,3.796346 9.5246,13.353183 10.20278,21.442543 0.5045,6.017625 0.24951,7.581383 -2.0581,12.621866 C 452.18527,66.652714 451,69.570924 451,69.973326 c 0,0.402403 2.6254,2.79427 5.83421,5.31526 6.81564,5.354666 12.59878,13.345942 14.2688,19.71696 2.38097,9.083204 -3.69513,21.175714 -12.60301,25.082224 -5.30929,2.32836 -11.5,3.44944 -11.5,2.08254 0,-0.57875 0.41936,-1.31145 0.93191,-1.62823 0.54362,-0.33597 0.3588,-1.68063 -0.44358,-3.22722 -1.24823,-2.40596 -1.13287,-3.06527 1.24687,-7.12599 1.4423,-2.4611 2.20441,-4.27494 1.69358,-4.03076 -0.51083,0.24419 -3.17878,1.546 -5.92878,2.89293 -4.47038,2.18956 -6.21811,2.43927 -16.5,2.3575 -8.54058,-0.0679 -13.55873,-0.65828 -19.5,-2.29404 -17.52928,-4.8262 -37.74808,-3.7742 -46.46061,2.41737 -2.49666,1.77425 -5.55237,3.53589 -6.79045,3.91475 -3.21541,0.98392 -4.62903,3.99304 -2.64816,5.63702 1.28287,1.06469 3.0933,0.97352 10.22899,-0.51512 C 367.5984,119.5737 377.125,118.55371 384,118.30188 l 12.5,-0.45787 8.42176,10.7706 c 27.35955,34.9902 37.19458,60.03668 35.83691,91.26443 -0.6864,15.78792 -3.51139,22.96515 -12.54129,31.86267 -6.96994,6.86776 -21.20392,14.64733 -28.71738,15.69545 -3.97792,0.55492 -3.96689,0.5412 2,-2.48495 3.3,-1.67362 4.875,-2.75968 3.5,-2.41347 -1.375,0.3462 -8.75564,0.87648 -16.40142,1.17838 -15.76947,0.62268 -14.48427,1.6718 -10.67862,-8.71712 1.97398,-5.3887 2.81262,-12.06349 1.33004,-10.58581 -0.4125,0.41113 -2.325,5.32064 -4.25,10.91001 -3.28884,9.54937 -3.74837,10.29872 -7.61672,12.42055 -4.16654,2.28538 -14.90139,4.03788 -17.83597,2.91178 -1.38624,-0.53195 -1.21366,-1.37795 1.30245,-6.38487 4.35109,-8.65841 7.79034,-18.90608 9.23939,-27.52988 1.23227,-7.3336 1.18974,-7.90084 -0.86671,-11.5598 l -2.16257,-3.84777 7.72006,0.41885 c 9.00846,0.48876 12.27558,-0.91231 10.38126,-4.45188 -1.79617,-3.35618 -7.77268,-5.53396 -15.57098,-5.67392 -6.5756,-0.11802 -7.06433,0.0179 -6.73367,1.87274 0.74634,4.1865 0.33044,7.30175 -2.25935,16.92323 -5.04823,18.75496 -15.53623,35.37302 -25.0528,39.69575 -5.05046,2.29408 -7.93988,2.46257 -5.04439,0.29415 z m -26.40124,-58.58406 c 11.77991,-12.06371 23.90146,-32.20944 29.68095,-49.32907 5.10813,-15.13097 10.37486,-47.72682 11.52332,-71.317881 0.42745,-8.78046 0.31131,-9.486996 -2.0136,-12.25 -4.61663,-5.486554 -4.9268,-4.447028 -4.46836,14.975786 C 329.87112,138.39566 319.7219,174.0559 297.20329,205 c -3.00184,4.125 -6.83888,8.9625 -8.52676,10.75 -1.68787,1.7875 -2.73387,3.25 -2.32444,3.25 0.40944,0 3.89544,-3.22692 7.74667,-7.17093 z M 376,178.04549 c 0,-4.5134 -10.85803,-25.97139 -11.76502,-23.25042 -0.20058,0.60173 0.11608,1.99237 0.70368,3.09032 0.86015,1.60719 0.68705,2.26337 -0.88812,3.36665 -1.7599,1.23269 -4.05054,5.58472 -4.05054,7.69571 0,0.44965 2.40359,1.99352 5.34131,3.43081 2.93772,1.43729 6.15747,3.5151 7.15499,4.61735 1.93764,2.14107 3.5037,2.61021 3.5037,1.04958 z M 220.53631,159.95988 c 1.44027,-1.59148 1.9726,-4.28538 2.42071,-12.25 0.38866,-6.90813 0.83368,-9.48226 1.37609,-7.95988 0.44092,1.2375 1.50751,2.25 2.3702,2.25 1.29167,0 1.45581,-0.82245 0.9299,-4.65939 -0.35125,-2.56266 -1.52984,-6.05016 -2.61908,-7.75 l -1.98044,-3.09061 -0.0485,5.5 -0.0485,5.5 -2.05173,-2.75 c -3.44129,-4.61248 -4.53087,-3.54726 -5.25517,5.1377 -0.36179,4.33823 -1.32162,10.07573 -2.13295,12.75 -1.92511,6.34546 -1.87338,8.11724 0.25321,8.67297 3.54952,0.92759 4.98254,0.64235 6.78631,-1.35079 l -5e-5,0 z m -0.83336,-35.16236 c 1.53838,-0.66137 2.92214,-1.27396 3.07503,-1.36131 0.15289,-0.0874 -0.16528,-1.32469 -0.70704,-2.74963 -1.41081,-3.71072 -6.32412,-5.98855 -11.15639,-5.17214 -5.0093,0.84631 -5.68675,2.0327 -2.19725,3.84796 1.53049,0.79616 3.87364,2.61533 5.20701,4.04259 2.83527,3.0349 2.27335,2.89949 5.77864,1.39253 z M 266.4796,98.369455 c 0.67315,-0.258311 1.03829,-1.45961 0.81143,-2.669555 -0.22686,-1.209945 0.28985,-4.881944 1.14825,-8.159999 C 270.27313,80.536782 270.31424,80 269.01685,80 c -0.54074,0 -2.08633,2.177002 -3.43465,4.837783 -1.34832,2.660781 -4.0559,6.939675 -6.01684,9.508653 C 257.60441,96.915415 256,99.289507 256,99.622197 c 0,0.606653 8.18337,-0.371596 10.4796,-1.252742 z M 416.94264,85.669523 c 4.75127,-1.250768 4.07399,-0.368532 12.98898,-16.919523 1.70344,-3.1625 3.54069,-5.75 4.08278,-5.75 0.54208,0 0.9606,-0.7875 0.93004,-1.75 -0.042,-1.323685 -0.59014,-1.027451 -2.25,1.216027 -4.29664,5.80737 -12.28423,13.850021 -18.19444,18.319854 -3.3,2.495757 -6.4275,4.914925 -6.95,5.37593 -1.34511,1.186796 4.09806,0.901509 9.39264,-0.492288 z M 445,79.381966 c 0,-0.825 -0.45,-1.221885 -1,-0.881966 -0.55,0.339919 -1,1.293034 -1,2.118034 0,0.825 0.45,1.221885 1,0.881966 0.55,-0.339919 1,-1.293034 1,-2.118034 z M 45,259.98442 c 0.825,-0.54172 3.215646,-1.45975 5.312546,-2.04007 2.0969,-0.58032 4.5719,-1.27391 5.5,-1.54132 0.9281,-0.26741 -0.732756,0.65751 -3.690789,2.05538 -5.426053,2.56418 -10.290033,3.60641 -7.121757,1.52601 z m 80,-74.9254 c 0,-2.18567 1.50387,-3.48368 2.97952,-2.57168 0.61674,0.38117 0.52765,1.32894 -0.24055,2.55902 C 126.18196,187.53954 125,187.545 125,185.05902 z m 2.5,-85.229836 c -1.65,-0.467046 -6.78693,-1.522378 -11.41541,-2.345181 -7.05915,-1.254905 -9.24109,-2.133018 -13.53868,-5.448585 C 94.126669,85.540023 87.014967,82.804765 77.119656,82.256136 64.906293,81.578987 58.392708,83.132323 43.001031,90.392622 26.893286,97.990693 24.015325,99 18.457766,99 15.418827,99 14.032341,98.526662 13.574206,97.332783 12.684201,95.013466 13.37358,94.628148 23,92.064382 c 7.733818,-2.059716 11.63488,-3.519117 30.5,-11.410154 19.898205,-8.323164 46.95859,-4.311123 68.12189,10.099925 9.46829,6.447383 12.35839,10.909327 5.87811,9.075031 z m 42.57895,-19.245851 c -0.0434,-1.054166 0.19292,-1.644791 0.52522,-1.3125 0.33229,0.332292 0.36781,1.194792 0.0789,1.916667 -0.31922,0.797733 -0.55618,0.560776 -0.60416,-0.604167 l 4e-5,0 z"
       id="path2844"
       sodipodi:nodetypes="cssssssssssssssssssssssssssssssssssssssssssssssssssssssssssssssssssssssccscccssssssssssssssssccssssssssscccsssscccssssssssssssssccsssssssssssssssssssscccssssssssssssscccsssssccsssssssccssssssccsssscccccssscccsssssccssssssccssssssccsssccsssccssccsssssssssccsscc" />
    <path
       style="fill:#917109"
       d="m 349,269.978 c 0,-0.71881 1.53842,-4.54801 3.41871,-8.50935 6.67529,-14.06332 10.36087,-31.27496 7.74402,-36.16459 -1.05614,-1.9734 -0.79529,-2.06836 6.9066,-2.51422 4.4023,-0.25484 8.4834,-0.94257 9.06911,-1.52828 1.81314,-1.81314 -1.26402,-6.57734 -5.63844,-8.72967 -4.04595,-1.99072 -15.98977,-3.3254 -19.09503,-2.1338 -1.49152,0.57235 -1.49259,0.81924 -0.0133,3.07691 2.10098,3.20652 2.0447,4.20306 -0.90512,16.025 -3.37003,13.50604 -9.36181,25.21952 -16.9667,33.16862 -3.33146,3.48226 -6.6126,6.33138 -7.29141,6.33138 -0.67881,0 0.59623,-1.65368 2.83342,-3.67485 C 333.03139,261.73892 336,257.28787 336,254.9223 c 0,-0.64736 -1.97354,0.64212 -4.38564,2.86552 -7.09978,6.54435 -9.82471,7.55209 -18.76409,6.93937 -7.00213,-0.47994 -8.54619,-0.99868 -16.01122,-5.37917 C 288.27169,254.32068 270,237.57915 270,234.75661 c 0,-0.80475 3.0375,-3.51202 6.75,-6.01616 18.3647,-12.38729 33.98442,-31.78058 44.08899,-54.74045 1.8154,-4.125 3.87085,-8.625 4.56767,-10 3.66594,-7.23383 9.24462,-44.54033 10.288,-68.799272 l 0.61501,-14.299273 -3.85778,-3.950727 C 330.33011,74.777827 328.84328,73 329.14783,73 c 3.29677,0 24.00014,11.178698 34.62469,18.695455 3.44989,2.440759 7.09555,4.295274 8.10147,4.121144 C 373.98118,95.451835 396,70.385839 396,68.351807 c 0,-2.208231 -1.45647,-1.582381 -6.35785,2.73198 -2.55168,2.246084 -5.14373,3.915686 -5.7601,3.710229 C 382.70217,74.400722 393.21257,66 394.88451,66 c 1.83696,0 4.95096,-5.066656 5.64735,-9.188557 0.60894,-3.604297 0.39685,-4.362945 -1.66708,-5.963204 -1.45394,-1.127309 -1.97323,-2.125231 -1.3482,-2.59088 9.36644,-10.545742 3.71774,-18.034599 2.1778,-20.110201 -0.9502,-1.280725 -1.64764,-1.40236 -5.6519,-0.765786 -6.05734,0.96296 -11.90089,3.6774 -16.37687,7.607365 -4.52973,3.977157 -5.88162,3.175156 -3.04994,-1.809356 6.24562,-10.993923 28.95895,-17.699569 46.63306,-13.767453 9.77603,2.17496 22.53643,8.360341 26.21019,12.704936 8.24651,9.75234 10.4579,23.086443 5.33598,32.174521 C 450.35406,68.622279 449.98926,72 451.96236,72 c 2.11416,0 14.15322,12.590942 16.45427,17.208544 5.12342,10.281355 2.01892,23.107736 -6.85116,28.305956 -5.30141,3.10683 -5.89802,3.09563 -9.57413,-0.1798 -3.53464,-3.14938 -3.60125,-3.77218 -1.0133,-9.4755 1.08792,-2.39756 1.98792,-5.24923 2,-6.33704 0.0177,-1.59099 -0.56615,-1.26437 -2.9848,1.66987 -1.76181,2.13738 -4.97069,4.40548 -7.75,5.47784 -6.64797,2.56505 -20.14152,2.33667 -31.24324,-0.52879 -4.675,-1.20667 -12.55,-2.76897 -17.5,-3.47178 -5.43591,-0.7718 -9.0495,-1.75136 -9.125,-2.47357 -4.99446,-0.43658 -3.8231,-1.64798 -3.375,-4.148968 0,-0.524281 4.6125,-6.17399 10.25,-12.554909 10.76913,-12.189253 17.20466,-22.143451 16.12875,-24.94723 -1.15602,-3.012527 -3.63241,-1.154711 -4.8475,3.636641 -1.47094,5.80023 -6.016,11.791686 -21.18164,27.922389 C 365.58278,108.8738 359.51526,114 355.43248,114 c -2.85695,0 -5.66953,3.29608 -5.26284,6.16753 0.43531,3.07347 3.71891,3.42504 13.08597,1.4011 3.98441,-0.86092 12.86939,-2.00926 19.74439,-2.55186 l 12.5,-0.98656 2.77183,3.23489 c 17.90921,20.90116 30.76093,41.38481 36.32058,57.88937 6.88315,20.43355 8.22689,42.88393 3.3919,56.66974 -2.1446,6.11481 -9.33561,15.98215 -11.22602,15.40408 -0.48871,-0.14944 -2.09675,0.58034 -3.57343,1.62175 -5.22245,3.68307 -12.77258,6.92049 -19.88227,8.52533 -6.72581,1.51818 -25.31226,2.28163 -26.50517,1.08871 -0.29476,-0.29475 0.55331,-3.23259 1.8846,-6.52852 2.40359,-5.95068 3.01158,-16.43556 0.95306,-16.43556 -0.47571,0 -2.10045,4.275 -3.61052,9.5 -4.39019,15.19042 -5.25659,16.74188 -10.63743,19.04838 C 359.37063,270.62735 349,271.84852 349,269.978 z m 25.50356,-99.56478 c -2.6701,-7.09379 -9.33689,-18.38894 -10.86297,-18.40447 -0.47267,-0.005 -0.65942,1.67875 -0.41499,3.74125 0.29924,2.52506 -0.12229,4.56662 -1.29047,6.25 -0.95419,1.375 -2.01086,3.72692 -2.34816,5.22649 -0.56101,2.49412 -0.16471,2.95281 4.64988,5.38207 2.89473,1.46056 6.83815,4.03443 8.76315,5.7197 3.27179,2.86434 3.51952,2.93097 3.79937,1.02193 0.16465,-1.12321 -0.86846,-5.14485 -2.29581,-8.93697 z m -16.41125,-68.34005 c 5.49939,-3.112936 0.24807,-6.788031 -5.77183,-10.096842 -3.19777,-1.757639 -3.80452,-2.359861 -7.85441,-4.291116 C 342.52241,86.758346 340.76281,86 340.55584,86 c -0.20697,0 -0.64694,3.9375 -0.97771,8.75 -0.33078,4.8125 -0.80926,11.28954 -1.0633,14.39342 l -0.46189,5.64342 c 11.5031,-7.11911 4.47478,-4.45374 20.03937,-12.71367 z M 422,84.208649 c 4.55242,-2.241982 5.44517,-3.101784 5.18175,-4.990499 -0.18168,-1.302588 1.32036,-5.104462 3.5,-8.859021 2.10004,-3.617443 4.37412,-7.540611 5.05351,-8.718149 1.36149,-2.359772 1.69701,-6.663267 0.51474,-6.602311 -0.4125,0.02127 -3,3.206154 -5.75,7.077525 -5.76103,8.11021 -11.40541,13.650743 -20.25,19.877446 -3.4375,2.420042 -6.25,4.819616 -6.25,5.332385 0,1.78099 12.4221,-0.370363 18,-3.117376 z m 22.17126,-0.863639 c 2.16851,-1.962474 2.36569,-4.654494 0.45695,-6.238607 -1.09463,-0.908459 -1.48457,-0.579618 -1.92997,1.627556 -0.307,1.521322 -0.86284,3.553541 -1.2352,4.516041 -0.85257,2.203766 0.33215,2.245329 2.70822,0.09501 z M 213.42548,259.02548 c -0.53598,-0.53598 -4.56348,-2.53291 -8.95,-4.43761 -5.25252,-2.28074 -8.07998,-4.08187 -8.28157,-5.27548 -0.90779,-11.42946 -0.73042,-13.94773 -3.85804,-25.88425 -2.21615,-6.56285 -5.58421,-11.90618 -11.19955,-17.76777 C 177.04985,201.39471 165.09131,192 163.74801,192 c -0.27391,0 -0.74831,1.25148 -1.05422,2.78106 -0.30592,1.52959 -2.40176,4.87771 -4.65742,7.44028 -7.40005,8.40691 -19.52422,10.9816 -48.03637,10.20102 -20.469036,-0.56038 -23.548953,-1.151 -23.365377,-4.48063 0.07404,-1.34295 0.657853,-9.1163 1.297356,-17.2741 0.639503,-8.1578 1.075286,-24.60507 0.968407,-36.54947 -0.219019,-24.47667 0.763377,-29.97456 6.16876,-34.52289 2.634757,-2.217 3.769454,-2.45224 11.329034,-2.34872 6.33246,0.0867 9.03263,-0.29881 10.96623,-1.56575 3.72457,-2.44043 3.91202,-2.14296 1.55766,2.47196 -6.25103,12.25302 -7.14126,18.40094 -5.88065,40.61153 0.7522,13.25294 0.73331,22.43506 -0.067,32.55923 -0.9792,12.38732 -0.9278,14.23741 0.423,15.22514 1.77311,1.29653 17.54396,0.74974 19.05257,-0.66056 0.5225,-0.48846 2.9975,-0.89798 5.5,-0.91006 5.21377,-0.0252 13.05,-3.20087 13.05,-5.28863 0,-0.7746 -2.34316,-3.15911 -5.20703,-5.29889 -6.41596,-4.7938 -11.35212,-11.49388 -10.36183,-14.06462 0.67054,-1.74071 0.74989,-1.74302 1.7006,-0.0494 31.46156,6.29164 48.05569,-8.81815 67.36826,-8.58928 6.98248,1.69877 5.45757,-5.14048 0.72756,-4.75666 -2.53695,0.3339 -6.22756,-5.12406 -6.22756,-9.20978 0,-1.32592 0.8385,-3.16958 1.86333,-4.09704 2.05514,-1.85988 2.97757,-7.19672 3.99676,-23.12369 0.57522,-8.98913 0.84208,-10.02801 2.63991,-10.27713 2.01055,-0.2786 6.53081,3.23529 8.38151,6.51548 0.79611,1.41102 1.24517,1.51286 2.25621,0.51165 C 220.14938,125.25791 221,125.77799 221,129 c 0,2.95586 -1.28273,3.96959 -2.51008,1.98369 -1.31547,-2.12847 -2.23228,0.21746 -2.88048,7.37052 -0.3693,4.07537 -1.57918,10.68542 -2.68863,14.68899 -2.24667,8.10739 -1.9123,8.91398 3.70675,8.94149 4.20575,0.0206 5.33372,-1.6462 6.45045,-9.53171 1.1004,-7.77023 1.41331,-8.45298 3.87402,-8.45298 1.0087,0 2.07175,-0.61959 2.36235,-1.37687 0.71496,-1.86317 -0.93872,-8.87911 -3.49155,-14.81334 -1.15242,-2.67886 -1.77071,-5.19446 -1.37399,-5.59022 1.21524,-1.21232 5.41481,4.56034 6.57972,9.04439 0.60527,2.32982 1.52145,5.61799 2.03596,7.30704 0.51452,1.68905 0.93548,4.0034 0.93548,5.14301 0,3.60934 4.57646,3.91036 7.99467,2.72963 17.36938,-5.99981 26.16695,-15.69828 34.88931,-26.42833 L 269,113.04391 c -1.925,-1.70348 -5.8625,-4.47819 -8.75,-6.16603 -2.8875,-1.68784 -5.25,-3.43182 -5.25,-3.87551 0,-1.29489 5.94258,-3.00237 10.44922,-3.00237 2.28293,0 4.69078,-0.54 5.35078,-1.2 1.46285,-1.462854 1.56824,-5.031763 0.1893,-6.410704 -0.68094,-0.680938 -0.63638,-6.700677 0.13659,-18.45 1.3512,-20.538741 0.71277,-25.068906 -5.17675,-36.733474 C 256.95544,19.393256 245.9213,12 228.33046,12 c -5.35908,0 -9.7853,0.794017 -16.60639,2.979006 -18.74062,6.003154 -27.28534,7.276696 -50.54846,7.533958 -14.12986,0.156259 -20.98905,-0.09952 -20.33044,-0.758137 1.67647,-1.676464 9.03757,-2.888209 23.15483,-3.811621 22.61862,-1.479489 27.07358,-2.276897 53.46793,-9.5704231 7.39451,-2.0433181 20.09997,-1.7500431 27.84704,0.6427817 18.0849,5.5858554 36.02804,29.1367854 39.79043,52.2261824 1.73199,10.628978 -2.36134,25.671917 -9.55024,35.097053 -1.40534,1.84249 -2.55516,4.06319 -2.55516,4.9349 0,0.8717 2.55785,3.52923 5.6841,5.90561 8.10079,6.1577 14.44644,15.94982 18.77521,28.97245 1.94738,5.85847 3.54069,11.59597 3.54069,12.75 0,1.15403 0.60407,2.09824 1.34238,2.09824 2.26839,0 10.68413,-30.86239 12.13452,-44.5 0.35097,-3.3 1.0914,-9.375 1.64542,-13.5 3.54902,-26.424912 3.93667,-26.790177 8.10815,-7.639938 5.2492,24.097778 1.55932,58.424608 -9.25281,86.078488 -9.31117,23.81492 -27.99421,48.31745 -44.79536,58.74846 -3.23672,2.00951 -3.51744,2.02015 -11.5,0.43562 -4.50027,-0.8933 -9.16824,-1.62383 -10.37328,-1.62341 -3.93924,0.001 -3.43638,-1.81594 1.4204,-5.13339 2.62382,-1.7922 5.96362,-4.52019 7.42179,-6.06219 1.45817,-1.542 3.48317,-2.81629 4.5,-2.83176 1.01683,-0.0155 4.53509,-1.47796 7.81835,-3.25 C 275.74447,208.3352 282,201.40441 282,197.83885 c 0,-1.10312 1.36786,-5.42174 3.03969,-9.59693 4.23661,-10.58045 3.46899,-12.05065 -2.34613,-4.49347 -7.80985,10.14949 -16.87839,15.25495 -30.28768,17.05154 -6.02838,0.80769 -8.03204,0.61444 -15.85494,-1.52921 -4.92498,-1.34955 -13.02621,-4.31453 -18.00273,-6.58883 -8.66152,-3.95838 -9.47558,-4.1361 -19.04821,-4.15853 -10.47913,-0.0245 -15.26303,1.33276 -13.77309,3.90774 0.4252,0.73484 4.03559,3.92744 8.02309,7.09465 3.9875,3.16722 7.25,6.07783 7.25,6.46804 0,0.3902 2.65634,3.71852 5.90299,7.39625 3.24664,3.67774 7.40914,9.707 9.25,13.39835 3.12544,6.26726 3.34701,7.37353 3.34701,16.71155 0,7.69205 -0.40982,10.75008 -1.77568,13.25 -1.8717,3.42574 -2.70663,3.86769 -4.29884,2.27548 z M 34,249.18037 c 0,-0.5257 1.339699,-3.81885 2.97711,-7.3181 6.176265,-13.19907 9.321076,-33.99388 8.433426,-55.76536 -0.210856,-5.17169 -0.138643,-9.15835 0.160474,-8.85923 0.299116,0.29911 1.184934,4.7555 1.968482,9.90308 1.860924,12.22548 1.851078,32.61231 -0.01949,40.35924 -0.796817,3.3 -1.464788,7.92364 -1.484379,10.27475 -0.02981,3.57691 -0.427882,4.42389 -2.438483,5.18832 -1.321573,0.50246 -2.685181,1.37037 -3.030241,1.92869 C 39.511515,246.5994 34,250.19878 34,249.18037 z m 93,-73.43018 c 0,-3.99308 6.70217,-13.79831 15.8922,-23.25019 4.81287,-4.95 10.38296,-11.72089 12.37798,-15.04643 4.37641,-7.29513 9.46963,-19.73749 10.63675,-25.98479 1.0168,-5.44266 0.87811,-5.27579 5.08382,-6.11693 3.01169,-0.60234 3.26768,-0.47884 2.56957,1.23958 -0.42645,1.04971 -1.37553,4.38357 -2.10907,7.40857 -3.58502,14.78391 -12.41315,30.88771 -22.66778,41.34931 -3.85508,3.93288 -8.52283,9.475 -10.37279,12.31582 -2.95143,4.53226 -5.66207,7.12799 -10.16068,9.72992 -0.85162,0.49257 -1.25,-0.0317 -1.25,-1.64486 z m 1.88169,-76.201832 c -0.2484,-0.248403 -5.24123,-1.310799 -11.09517,-2.36088 -9.47556,-1.699726 -11.11366,-2.311653 -14.92775,-5.576373 -7.656953,-6.554064 -19.075769,-10.63283 -29.657991,-10.593741 -8.307354,0.03069 -17.876573,2.734033 -29.428042,8.313555 -13.784744,6.658225 -20.494956,8.892837 -25.471682,8.48249 -6.985173,-0.57595 -4.522039,-2.864144 6.359836,-5.90814 5.58849,-1.563273 14.36349,-4.70339 19.5,-6.978038 14.583331,-6.45807 20.942367,-8.055288 32.339109,-8.122706 12.402235,-0.07337 21.042327,1.922194 33,7.621852 9.23947,4.404019 19.02585,10.993921 19.99889,13.466751 0.56447,1.434519 0.18358,2.456012 -0.6172,1.65523 z M 206.25,99.367954 C 205.3896,98.999965 205,96.177071 205,90.311011 205,80.309808 202.98807,71.624014 198.92225,64.072418 197.31501,61.087248 196,58.274748 196,57.822418 c 0,-2.676392 11.87188,2.806904 14.38653,6.644744 C 213.15681,68.69515 216,80.131352 216,87.046318 c 0,3.792509 0.47814,7.131157 1.07403,7.499434 2.36444,1.461304 5.66406,-3.514095 6.34972,-9.574563 0.74007,-6.541365 1.93469,-8.04155 4.42221,-5.553339 2.17247,2.17307 2.02197,9.327887 -0.26977,12.825531 -0.95802,1.462122 -3.61708,3.54242 -5.90902,4.622884 -4.26859,2.01229 -13.18035,3.458365 -15.41717,2.501689 z m 22.97091,-29.13932 c -3.66385,-10.816922 -3.69565,-11.114536 -0.82875,-7.756351 2.94384,3.448306 5.9001,14.56453 3.85784,14.506351 -0.4125,-0.01175 -1.77559,-3.049251 -3.02909,-6.75 z M 376.48703,57.97901 C 376.15424,57.440555 376.33807,57 376.89553,57 c 0.55746,0 2.13856,-1.125 3.51356,-2.5 2.6529,-2.652897 4.8558,-3.334898 4.03757,-1.25 -0.77392,1.971989 -7.27605,5.835065 -7.95963,4.72901 z"
       id="path2842"
       sodipodi:nodetypes="cssssssssssssssssssscccssssssssscsssssssssssssssssccssssssscccssssssssssccsssssssccssssccccsssssssccsssccsccsssssssssssssssssssscccssssssssssssssssssssccssssssssssssssssssssssssssssssssssssssssssssssccssssssssccsssssssssccssssssssssccssssssssssccssccsssc" />
    <path
       style="fill:#6a520f"
       d="m 349.55916,270.09573 c -0.30737,-0.49735 1.24065,-4.65985 3.44005,-9.25 3.85433,-8.04397 9.00079,-25.50592 9.00079,-30.5397 0,-1.34063 -0.46583,-3.30793 -1.03518,-4.37177 C 359.9823,224.09841 360.32828,224 367.76482,224 376.18104,224 378,223.14993 378,219.21667 c 0,-3.64143 2.19417,-2.23781 4.87576,3.11904 1.73429,3.46447 2.39221,6.49358 2.43666,11.21845 0.0816,8.67227 -1.56521,10.21156 -3.78259,3.53564 -2.64409,-7.9606 -3.12073,-7.38166 -5.55733,6.75013 -1.48913,8.63671 -4.83761,19.28308 -6.7372,21.42074 C 367.55562,267.15086 356.30084,271 352.45368,271 c -1.2846,0 -2.58714,-0.40692 -2.89452,-0.90427 z M 208.11151,254.0118 c -4.06368,-2.75649 -8.22618,-5.0118 -9.25,-5.0118 -1.02383,0 -1.88113,-0.5625 -1.9051,-1.25 -0.4809,-13.79073 -1.99214,-22.38249 -5.02582,-28.57296 -3.82617,-7.80762 -13.62186,-18.46985 -22.28146,-24.25251 C 162.74318,190.31292 161,190.03582 161,193.54966 c 0,3.17839 -2.08407,7.27257 -5.16744,10.15149 -6.81751,6.36546 -22.38193,8.93095 -48.38728,7.97569 -8.830102,-0.32436 -16.868498,-0.90201 -17.863106,-1.28368 -1.533525,-0.58847 -1.702684,-1.39302 -1.112978,-5.29355 0.38247,-2.52979 0.870562,-20.22994 1.084649,-39.33368 0.362617,-32.35756 0.526479,-35.00305 2.394941,-38.66554 2.246307,-4.40313 5.220896,-5.57509 13.172274,-5.18975 2.54158,0.12317 6.25408,-0.45837 8.25,-1.29232 1.99592,-0.83395 3.62894,-1.15968 3.62894,-0.72384 0,0.43583 -0.86985,3.32068 -1.933,6.41078 -2.96159,8.60802 -3.22467,12.64126 -2.19779,33.69474 0.6197,12.70545 0.60345,23.95723 -0.0466,32.29202 -1.2289,15.75602 -1.19962,15.81123 8.01208,15.10828 20.31986,-1.55062 27.82718,-3.32533 30.89704,-7.30398 3.34168,-4.33092 5.7683,-10.89203 5.7683,-15.59632 0,-4.40051 0.26561,-5.03777 2.2153,-5.315 3.10072,-0.44091 19.56862,8.28379 24.40313,12.92879 2.2086,2.12202 6.04154,5.31311 8.51765,7.09132 6.66899,4.78931 18.6226,18.85559 22.83369,26.86931 2.93265,5.58085 3.80211,8.5069 4.2271,14.22579 0.53983,7.26412 -0.58656,13.8046 -2.92642,16.99249 -1.16602,1.58863 -1.87776,1.31895 -8.65894,-3.2809 l -3e-5,0 z M 337,256.70537 c 0,-0.22696 1.75334,-5.76602 3.89631,-12.30901 2.14297,-6.543 4.70049,-16.28386 5.68339,-21.64636 0.9829,-5.3625 2.14419,-9.75 2.58064,-9.75 0.43645,0 1.50569,1.08686 2.37609,2.41525 1.46803,2.2405 1.39626,3.15211 -0.992,12.59961 -2.75948,10.91595 -5.56344,18.28035 -9.19542,24.15108 C 339.34149,255.41089 337,257.8549 337,256.70537 z M 35.489658,246.38645 C 41.121878,233.24264 46,213.50235 46,203.85427 c 0,-3.20902 0.501341,-6.04608 1.137938,-6.43952 1.719897,-1.06296 0.48903,23.62886 -1.574499,31.58525 -1.902868,7.33692 -7.343117,18.14817 -9.472789,18.825 -1.044733,0.33202 -1.200217,-0.0401 -0.600992,-1.43855 z M 431.01455,243.75 c 0.008,-0.6875 0.64128,-3.05 1.40727,-5.25 0.76599,-2.2 1.62881,-6.025 1.91738,-8.5 0.28856,-2.475 0.84488,-7.31713 1.23626,-10.76029 0.89931,-7.91163 -1.11155,-22.63169 -4.23651,-31.01254 C 430.05253,184.77712 429,181.15457 429,180.17706 c 0,-2.69911 -10.36603,-22.24738 -17.81449,-33.59461 -3.64004,-5.54535 -9.87143,-13.74441 -13.84752,-18.22014 -3.9761,-4.47573 -6.95374,-8.41323 -6.61697,-8.75 1.84105,-1.84105 5.43397,-0.24556 9.31776,4.13769 7.52666,8.4946 19.01862,24.60273 25.17939,35.29362 10.57183,18.34548 16.55144,41.78835 15.5121,60.81466 -0.54413,9.96093 -3.25673,19.856 -6.39342,23.322 -1.9118,2.11251 -3.34312,2.35796 -3.3223,0.56972 z M 257,230.0126 c -1.925,-0.43257 -5.1875,-1.08276 -7.25,-1.44486 -2.0625,-0.3621 -3.7492,-0.97548 -3.74821,-1.36305 9.8e-4,-0.38758 1.92547,-1.91992 4.27664,-3.4052 2.35116,-1.48529 5.27238,-3.84779 6.49159,-5.25 1.21922,-1.40222 3.00723,-2.54985 3.97337,-2.55028 2.84703,-0.001 12.76184,-4.86008 16.33001,-8.69983 4.28326,-4.60927 6.49833,-9.12523 9.27989,-15.29938 4.46563,-9.91223 6.7967,-16.94616 6.90189,-26.07118 0.12623,-10.94986 -1.07677,-17.29744 -2.21388,-21.12442 -4.47413,-15.05779 -13.72102,-30.03451 -27.79127,-38.01686 -2.88748,-1.63813 -5.48856,-3.36447 -5.78017,-3.83631 -0.71856,-1.16265 6.20959,-2.93997 10.78915,-2.76781 2.45552,0.0923 3.88266,0.68757 4.22355,1.76164 0.28318,0.89221 1.81046,2.38753 3.39395,3.32292 4.56566,2.697 13.33201,12.76224 16.82251,19.31506 1.75946,3.30308 4.45946,10.51152 6,16.01874 1.54054,5.50723 3.25098,10.17434 3.80098,10.37136 0.55,0.19703 1.82754,-1.85383 2.83898,-4.55746 2.15341,-5.75613 7.85745,-28.8443 9.61431,-38.91568 0.67159,-3.85 1.44469,-7.811192 1.71799,-8.80265 0.95895,-3.47876 3.00719,0.153488 4.82135,8.54994 3.19069,14.76744 0.89459,38.58893 -5.61486,58.25271 -8.37753,25.30687 -25.73866,50.27191 -43.08246,61.95191 -5.47854,3.68946 -8.55364,4.18799 -15.79531,2.56069 z M 351.00066,188.75 c 0.001,-2.20281 7.78374,-36.86773 8.41998,-37.50397 1.13515,-1.13515 2.48172,1.23285 2.70447,4.75594 0.12164,1.92392 -0.53174,4.93818 -1.45197,6.69837 -2.92968,5.60383 -2.27654,7.93916 2.85529,10.20921 2.49063,1.10173 6.47448,3.59778 8.85299,5.54679 2.37851,1.94901 4.61572,3.54366 4.97157,3.54366 1.36069,0 0.5075,-5.77583 -1.83301,-12.40893 -2.82307,-8.00068 -1.48856,-7.59851 1.59145,0.4796 5.05168,13.24932 5.52675,16.92933 2.18549,16.92933 -0.81901,0 -3.98517,-0.72563 -7.03592,-1.6125 -6.89676,-2.00495 -12.10269,-1.37277 -16.53497,2.0079 -3.82238,2.91547 -4.72633,3.1746 -4.72537,1.3546 z m -223.4404,-15 c 1.56927,-5.08009 6.20436,-11.39738 14.48323,-19.73956 11.72272,-11.81238 20.32229,-26.80615 24.38155,-42.51044 1.01376,-3.922 1.77509,-5.07165 3.53122,-5.33233 2.04048,-0.30289 2.1808,-0.0371 1.58388,3 -3.481,17.71153 -13.82038,37.38861 -24.40787,46.4511 -2.2871,1.95768 -6.21441,6.4407 -8.72735,9.96227 -6.34006,8.8848 -12.49887,13.52405 -10.84466,8.16896 z m 80.08229,-8.77821 c -6.52257,-1.95463 -8.38343,-6.69811 -4.62298,-11.78438 1.72574,-2.33419 2.11211,-4.87438 2.65567,-17.45951 C 206.26433,122.08862 206.45336,121 208.2326,121 c 1.05668,0 3.27658,1.35534 4.9331,3.01186 l 3.01186,3.01186 -0.66943,8.73814 c -0.36819,4.80598 -1.59526,12.27319 -2.72684,16.5938 -2.33599,8.91934 -1.91343,9.863 4.21161,9.40533 4.07661,-0.30461 5.64195,-2.74861 6.66582,-10.40744 0.62824,-4.69949 1.89502,-6.74739 3.54353,-5.72855 1.20503,0.74475 0.95613,12.19679 -0.31929,14.69074 -2.117,4.13957 -5.05248,5.64362 -10.88296,5.57607 -3.025,-0.035 -6.78585,-0.44905 -8.35745,-0.92002 z M 459,117.13289 c 0,-0.47692 -1.78199,-2.04638 -3.95998,-3.48771 l -3.95998,-2.62059 1.45998,-4.13802 c 1.8285,-5.18252 1.88678,-14.929335 0.11463,-19.170688 C 451.20645,84.249864 443.12214,73 442.07961,73 c -0.34786,0 -0.47108,1.692284 -0.27383,3.760631 0.532,5.578485 -2.41276,8.717617 -10.6099,11.310237 C 423.75094,90.425578 407,91.93227 407,90.247207 c 0,-0.566612 3.20937,-1.754971 7.13193,-2.640797 10.61105,-2.396279 22.50328,-9.894674 18.04798,-11.379773 -2.47994,-0.826648 -0.64173,-7.629863 3.26093,-12.068689 1.8124,-2.061386 2.03003,-3.47263 1.81607,-11.776299 C 436.90857,38.863091 434.58978,34.749554 424.5,29.750924 c -15.53648,-7.697012 -36.72111,-5.679705 -47.25,4.499384 -2.73333,2.642521 -3.25,2.843151 -3.25,1.262021 0,-1.034003 2.18958,-3.990484 4.86574,-6.569959 11.46255,-11.048429 34.97011,-13.569279 53.83437,-5.772968 13.35994,5.521459 19.13261,11.753254 21.93831,23.68315 1.59777,6.793734 1.0397,10.898059 -2.44881,18.009844 l -2.63038,5.362397 3.97038,3.079325 c 15.8477,12.291051 20.60663,23.41864 15.08591,35.274742 C 465.83454,114.55121 459,120.63125 459,117.13289 z m -101,-5.74411 c 0,-0.33617 1.8,-2.76112 4,-5.38878 2.2,-2.62766 4,-5.27479 4,-5.88251 C 366,97.807412 343.45559,84 339.68375,84 c -0.88736,0 -2.1342,-1.0125 -2.77075,-2.25 -0.63656,-1.2375 -2.31158,-3.4875 -3.72228,-5 -3.46106,-3.710824 -1.1732,-3.553156 5.80928,0.400348 3.025,1.712764 7.525,4.138249 10,5.389965 2.475,1.251717 8.55,4.996027 13.5,8.320689 7.53835,5.063125 9.26912,5.849479 10.65706,4.841919 3.6545,-2.652948 22.75693,-25.544508 24.40458,-29.245438 2.92411,-6.568135 4.40743,-10.857418 4.4233,-12.790816 0.0172,-2.095271 1.89501,-1.804098 3.36182,0.521287 0.72711,1.152714 0.41447,2.300137 -1.17856,4.325339 C 402.97569,60.029326 402,62.24593 402,63.439078 402,66.881001 397.1648,73.618985 385.81021,86 368.49012,104.88578 358,114.46253 358,111.38878 z M 116.90344,96.613796 C 109.88076,95.066938 106.43757,93.759944 104.06571,91.740742 95.503121,84.451273 85.669085,80.992613 73.568499,81.014781 62.730924,81.034635 55.430305,82.925973 43.5,88.804488 30.40508,95.256854 20.917458,98.360418 16.950786,97.489191 12.03867,96.410309 13.980123,94.883473 23.349722,92.456813 32.740308,90.024717 40.495079,87.164209 48.5,83.17961 c 17.827049,-8.873746 41.806546,-8.168186 62.17357,1.829363 11.31963,5.556465 22.24121,14.417594 17.07643,13.854823 -0.6875,-0.07491 -5.56845,-1.087412 -10.84656,-2.25 z m 89.84656,1.82331 c -0.4125,-0.423742 -0.75665,-3.957939 -0.76478,-7.853773 -0.0187,-8.962854 -2.20587,-18.302265 -6.06431,-25.895172 -1.65719,-3.261135 -2.78829,-6.154114 -2.51356,-6.428845 0.863,-0.862995 5.07654,0.591806 8.57856,2.961899 C 212.06319,65.334197 216,76.077568 216,88.549221 216,93.197921 216.36564,95 217.30887,95 c 2.95466,0 5.03167,-2.89363 6.1704,-8.596431 1.31697,-6.595485 3.3964,-7.819476 4.82455,-2.839825 1.36547,4.761115 -1.22816,9.846849 -6.35578,12.462765 -4.38164,2.235345 -13.8991,3.744932 -15.19804,2.410597 z m 68.65259,-6.769557 c 0.47196,-2.515758 0.17601,-3.738938 -1.20761,-4.991091 -1.65088,-1.494031 -1.79033,-3.024124 -1.40513,-15.417549 C 273.31283,54.432294 272.20678,47.899495 267.07419,37.5 259.78805,22.737021 250.12071,14.466456 237.209,11.949835 229.18446,10.385772 221.99444,11.197222 210,15.020582 c -16.33024,5.205446 -29.2635,7.049755 -48.5,6.916199 -9.35,-0.06491 -17.7875,0.195898 -18.75,0.579584 C 141.71712,22.928109 141,22.760354 141,22.106989 141,21.498145 142.15458,21 143.56574,21 c 1.41116,0 3.41549,-0.454768 4.45406,-1.010596 1.03857,-0.555828 9.26135,-1.432505 18.27284,-1.948171 17.33132,-0.991753 31.87679,-3.480936 44.52951,-7.620386 15.01551,-4.9124536 30.01568,-4.2485824 41.48237,1.835909 6.74007,3.576436 18.45419,15.55188 23.5509,24.076281 1.84548,3.086622 4.65196,9.336898 6.23662,13.889502 4.90246,14.08437 3.60603,29.414483 -3.42732,40.527461 -3.23896,5.117678 -4.09526,5.358534 -3.26213,0.917549 z"
       id="path2840"
       sodipodi:nodetypes="csssssssssssccsssssssssssssssssssssssssscccssssssccssssccssssssssssssccsssssssssssssssssssssssccsssssssssssccssssssccssscccsssssscccccssssssssssssssscccsccsssssssssssssssccssssssssccsssssssssccssssssssssssssssc" />
    <path
       style="fill:#28190d"
       d="m 350,269.57439 c 0,-0.23409 1.72888,-4.00072 3.84195,-8.37028 2.11308,-4.36957 5.09154,-12.61555 6.61882,-18.32439 1.52727,-5.70885 2.93427,-10.94222 3.12666,-11.62972 1.33238,-4.7612 7.4326,4.87934 8.15942,12.8948 0.62533,6.89634 -1.29987,17.01724 -3.85491,20.26545 C 365.58987,267.33686 350,271.83655 350,269.57439 z M 214.85997,252.64285 c -0.90201,-1.22511 -4.50201,-4.1117 -8,-6.41463 C 198.12646,240.47841 198,240.342 198,236.67067 c 0,-4.91749 -2.73823,-14.41394 -5.78291,-20.05565 -3.99395,-7.4007 -13.36312,-16.91982 -22.89699,-23.26343 -8.36746,-5.56752 -12.53013,-10.54156 -10.51142,-12.56027 2.1167,-2.1167 17.87168,6.73352 31.19132,17.52142 10.76418,8.71817 19.96318,19.22019 24.67864,28.17431 3.05295,5.79721 3.75289,8.26646 4.11024,14.5 0.28616,4.99163 -0.0256,8.58188 -0.92909,10.69811 l -1.35979,3.18516 -1.64003,-2.22747 z m 126.70432,-4.93598 c 0.37553,-0.98622 0.93469,-1.54122 1.24258,-1.23333 0.30789,0.30789 6.4e-4,1.11479 -0.68278,1.79313 -0.98762,0.98026 -1.10248,0.8654 -0.5598,-0.5598 z M 343.21711,244 c 1.42905,-4.19097 3.74202,-13.16684 4.76723,-18.5 1.62261,-8.44086 2.098,-9.81945 3.05205,-8.85066 1.57027,1.59454 -4.63505,25.39147 -7.26238,27.85066 -0.73456,0.68755 -0.90856,0.53133 -0.5569,-0.5 z m 94.52945,-22.19583 c 0.66168,-14.1917 -0.64348,-23.44987 -5.3999,-38.30417 -6.03002,-18.83173 -20.06146,-41.64386 -37.67407,-61.25 -1.6988,-1.89109 -1.7654,-2.25 -0.41752,-2.25 1.89663,0 15.89054,17.1056 23.36295,28.55796 12.17559,18.66054 17.73125,32.30847 20.92373,51.40088 1.8009,10.77014 1.6235,25.96538 -0.36238,31.04116 -0.68107,1.74076 -0.81251,-1.05196 -0.43281,-9.19583 z M 254.5,228.59292 c -3.3,-0.63286 -6,-1.45175 -6,-1.81975 0,-0.36801 2.1375,-2.08493 4.75,-3.81537 2.6125,-1.73045 4.75,-3.5413 4.75,-4.0241 0,-0.48281 2.3625,-1.56939 5.25,-2.41464 15.50082,-4.53749 23.82128,-16.64643 29.66181,-31.01906 5.41061,-13.31467 5.94253,-24.28421 1.5546,-39.7917 -1.82783,-6.45978 -4.2225,-9.94606 -5.85054,-13.22788 -3.86065,-7.78233 -6.37525,-11.32764 -12,-16.91867 -3.91373,-3.89028 -9.25337,-8.19487 -11.86587,-9.56577 -2.6125,-1.3709 -4.75,-2.78203 -4.75,-3.13585 0,-1.13881 4.91655,-1.91918 7.6961,-1.22156 1.48285,0.37218 5.29789,2.65537 8.47787,5.07376 11.19121,8.51099 17.22434,18.27804 21.72427,35.16953 1.66769,6.26003 3.26194,11.61166 3.54279,11.89251 1.3069,1.30689 3.49324,-2.54308 6.5342,-11.5062 1.82276,-5.37249 3.62363,-10.12029 4.00193,-10.55066 1.60828,-1.82963 3.31526,10.42242 2.71726,19.50339 -1.8157,27.57213 -18.95554,58.44701 -41.29618,74.38897 -6.72579,4.79942 -8.20739,5.03329 -18.89824,2.98305 z m -156,-18.21294 c -2.75,-0.22143 -5.988475,-0.62506 -7.196612,-0.89695 -2.1359,-0.48067 -2.153393,-0.59777 -0.632919,-4.23678 1.341385,-3.21038 1.511505,-8.62395 1.196612,-38.07861 L 91.5,132.83148 94.305764,130.41574 C 96.770408,128.2937 98.090553,128 105.16417,128 c 7.84426,0 8.03867,0.0582 7.51251,2.25 -1.55589,6.4813 -1.68145,10.93828 -0.83139,29.51217 0.58808,12.84976 0.57179,24.8586 -0.0446,32.82671 -1.23955,16.02509 -0.95198,16.50121 9.54438,15.80259 12.47826,-0.83053 23.03517,-2.6053 26.82985,-4.51048 2.02124,-1.0148 5.17124,-3.93554 7,-6.49054 2.77027,-3.87038 3.37687,-4.30178 3.63571,-2.58563 0.84583,5.60781 -5.1795,10.98352 -15.36813,13.71124 -5.93154,1.588 -33.94211,2.7497 -44.94255,1.86392 l 5e-5,0 z M 353.36374,185.25 c 0.27419,-0.9625 1.00979,-4.32965 1.63467,-7.48256 0.62488,-3.15291 1.45915,-5.93219 1.85393,-6.17618 1.37509,-0.84985 12.67103,5.31209 15.95162,8.70162 l 3.30395,3.41367 -7.50392,-0.48157 c -6.401,-0.41079 -8.03411,-0.16876 -11.11112,1.64672 -4.37299,2.58013 -4.76663,2.6162 -4.12913,0.3783 z M 130,171.48013 c 0,-2.65576 4.58108,-8.76068 11.99134,-15.98013 8.63708,-8.41467 13.86261,-15.81186 18.92806,-26.79427 2.08161,-4.51315 4.53556,-9.78073 5.45321,-11.70573 l 1.66847,-3.5 -0.60475,4 c -1.56106,10.32539 -11.96073,28.95232 -20.72864,37.12725 -2.43464,2.26999 -6.98403,7.33249 -10.10975,11.25 C 133.47222,169.79476 130.70898,173 130.45741,173 130.20583,173 130,172.31606 130,171.48013 z m 81.71897,-7.44275 c -7.02041,-1.3603 -10.38065,-4.14949 -9.0806,-7.53738 1.28997,-3.3616 6.69451,-0.51331 7.51443,3.96024 0.23997,1.30928 1.4942,2.19236 3.77691,2.65922 4.32336,0.88422 7.84356,-0.42975 8.97315,-3.34938 0.48306,-1.24854 1.34707,-3.39508 1.92003,-4.77008 1.01904,-2.44551 1.04322,-2.42749 1.10943,0.82692 0.0488,2.40063 -0.74617,4.14078 -2.8554,6.25 -3.00384,3.00384 -4.57421,3.2749 -11.35795,1.96046 z M 359.0856,159.5 c 0.0302,-1.1 0.44171,-2.9 0.9144,-4 0.78709,-1.83166 0.86406,-1.78958 0.9144,0.5 0.0302,1.375 -0.38124,3.175 -0.9144,4 -0.80009,1.23805 -0.95977,1.15073 -0.9144,-0.5 z M 209.75,148.45837 c -1.44091,-1.92225 -1.75,-4.46499 -1.75,-14.39648 0,-6.63404 0.3375,-12.04758 0.75,-12.03009 1.32841,0.0563 3.89044,2.40647 5.10086,4.679 1.20123,2.25525 0.0872,17.63385 -1.60071,22.09817 -0.72725,1.92343 -0.80356,1.91273 -2.50015,-0.3506 z M 459.08403,108.1061 c -2.68362,-3.38835 -3.09401,-4.71915 -3.16088,-10.250004 C 455.7956,87.30709 453.81669,83.460559 442.25,71.278747 c -3.20289,-3.373225 -2.866,-4.640395 1.06414,-4.00262 3.22249,0.522937 9.80175,5.796981 18.86259,15.120544 7.71498,7.938686 9.76212,16.966741 5.73406,25.287609 -2.62857,5.42991 -4.77889,5.53267 -8.82676,0.42182 z M 368,99.596291 C 368,97.982519 355.77453,89.911592 345.5,84.742392 338.20083,81.070123 333.31476,77 336.20547,77 c 0.83349,0 3.236,1.167606 5.33891,2.59468 2.10291,1.427074 4.90132,3.004475 6.21868,3.505335 1.86653,0.709655 17.60403,10.772393 23.69363,15.149985 0.68292,0.490932 0.52517,1.090135 -0.45669,1.734687 -2.08844,1.370973 -3,1.252953 -3,-0.388396 z M 207.66667,97.333337 C 207.3,96.966671 207,93.613816 207,89.882554 207,81.163646 205.4777,74.097528 201.87889,66.111685 200.2955,62.598111 199,59.571749 199,59.386435 c 0,-0.185313 1.2375,0.130557 2.75,0.701934 7.66504,2.895623 12.10569,11.965781 13.17562,26.911631 0.44882,6.269573 0.32207,9.749827 -0.37277,10.234687 -1.32129,0.922009 -5.99586,0.988973 -6.88618,0.09865 z M 17,96.099741 c 0,-0.495143 2.3625,-1.454422 5.25,-2.131732 2.8875,-0.677309 8.815476,-2.519216 13.173281,-4.093126 4.357804,-1.57391 8.079654,-2.705281 8.270778,-2.514157 C 44.171155,87.837822 33.288695,92.664347 26.3646,95.046584 20.220834,97.16035 17,97.522569 17,96.099741 z m 102.5,-0.132284 c -2.2,-0.450097 -5.66407,-1.092901 -7.69793,-1.428453 -2.12703,-0.350922 -5.52547,-2.146781 -8,-4.227484 C 101.43593,88.321955 96.575,85.30045 93,83.597065 86.71044,80.600269 86.055455,80.5 72.769019,80.5 58.006974,80.5 58.395614,79.395919 73.525435,78.351116 89.301718,77.26167 105.56318,81.806857 119.68735,91.253682 123.70931,93.94373 127,96.337126 127,96.572339 c 0,0.588833 -2.749,0.367123 -7.5,-0.604882 z M 222.74717,92.75 c 0.54562,-0.6875 1.29612,-2.9375 1.66775,-5 0.37164,-2.0625 1.10532,-3.75 1.63039,-3.75 1.7266,0 1.03334,6.618846 -0.87405,8.345012 -2.13892,1.9357 -3.86823,2.22461 -2.42409,0.404988 z m 202.746,-7.765423 c 4.39624,-2.114897 9.24494,-5.246247 10.77489,-6.958556 C 439.31282,74.618344 441,74.794495 441,78.520062 c 0,3.591298 -3.24062,5.951017 -11.44728,8.335562 -11.56276,3.359704 -13.28383,2.566467 -4.05955,-1.871047 z M 280.04004,82.826725 c -0.022,-0.920301 -1.22501,-3.081529 -2.6733,-4.802729 -2.44568,-2.90652 -2.68559,-4.069598 -3.36777,-16.326725 C 273.02606,44.216338 269.92309,36.175789 259.18479,23.310097 248.76335,10.824045 230.05669,6.6887483 212.5,12.989952 c -13.88894,4.984825 -26.24005,7.12457 -43.5,7.536072 -11.24958,0.268207 -15.22717,0.106337 -12.5,-0.50869 2.2,-0.496141 7.66778,-0.928008 12.15063,-0.959704 10.47325,-0.07405 28.13358,-3.119301 40.82604,-7.039814 22.07463,-6.8185277 38.04807,-4.4433205 51.50905,7.659256 9.40543,8.456291 18.35454,23.161942 21.54439,35.402892 2.0779,7.973883 1.65275,21.941694 -0.80417,26.420036 -1.04436,1.903602 -1.6605,2.388475 -1.6859,1.326725 z M 55.270833,81.395818 c 0.332292,-0.332291 1.194792,-0.367803 1.916667,-0.07895 0.797733,0.319226 0.560776,0.556183 -0.604167,0.604167 -1.054166,0.04342 -1.644791,-0.192928 -1.3125,-0.52522 z M 448.04245,63.551152 c -0.66134,-0.796866 -2.69637,-1.941892 -4.5223,-2.544502 -3.3122,-1.093125 -3.32149,-1.114598 -4.02487,-9.301152 -1.23489,-14.373007 -4.74193,-19.506498 -16.84419,-24.656007 -11.89759,-5.062425 -25.71011,-4.915974 -37.31215,0.395612 -6.99642,3.203069 -8.06481,2.650633 -1.88164,-0.972946 8.92179,-5.228516 15.73284,-6.684373 29.0427,-6.207853 12.97475,0.464523 18.07885,1.899872 28.06022,7.890958 11.48132,6.891391 17.18891,23.410171 11.78045,34.094738 -1.56998,3.101554 -2.55624,3.400111 -4.29822,1.301152 z"
       id="path2838"
       sodipodi:nodetypes="csssssccssssssssccccssccsssccssssssccssssssssssssssssssccsscccssssssssscccsscccsccsscccsssccsssssssccsssccssssccsssssccssssssccssssssccssssccsssssssccsssccsssccsssssssssssccssccssssssssc" />
  </g>
  <path
     style="fill:#ff0000"
     d="m 333.72873,543.64863 c -1.46371,-2.08974 -1.37406,-4.58924 0.23856,-6.65085 1.69179,-2.16284 1.67921,-3.51717 -0.0472,-5.07956 -1.79854,-1.62764 -1.31161,-4.58009 1.42376,-8.63315 1.08973,-1.61469 1.98135,-3.17761 1.98135,-3.47325 0,-0.29557 -0.79007,-1.36206 -1.75568,-2.36995 -4.48972,-4.68626 -1.99829,-12.07603 6.89821,-20.46056 5.0335,-4.74386 7.79831,-6.41887 16.65848,-10.09241 3.50691,-1.454 5.61249,-2.912 8.42325,-5.8326 2.70598,-2.81171 4.0663,-3.77169 4.89432,-3.45395 1.63242,0.62642 1.42078,2.94283 -0.61619,6.74427 -1.12912,2.10712 -1.80723,4.4973 -1.88613,6.6479 -0.16762,4.56784 -2.33832,8.89733 -7.16058,14.28144 -3.90446,4.35933 -5.41838,5.5046 -12.06625,9.12792 -3.49017,1.90226 -4.9706,3.41357 -4.34129,4.43182 0.8308,1.34422 2.59364,0.67505 8.32607,-3.16058 13.09393,-8.76131 19.68639,-9.18317 19.08765,-1.2214 -0.71807,9.54847 -12.46365,21.83105 -26.96451,28.19733 -2.34854,1.03108 -6.00687,2.03215 -8.12963,2.22465 -3.49338,0.31677 -3.96437,0.20036 -4.96419,-1.22707 z m 19.36995,-10.67437 c 3.48617,-2.39853 5.37114,-4.90444 4.80296,-6.38511 -0.31995,-0.83381 -1.14946,-0.58451 -4.60701,1.38456 -2.31922,1.32081 -5.21212,2.8434 -6.42864,3.38348 -2.52275,1.12001 -3.46113,2.79469 -2.08338,3.71799 1.53507,1.02874 5.06254,0.13762 8.31607,-2.10092 z m -0.28994,-24.87434 c 3.94699,-2.11236 4.59718,-12.74786 0.77865,-12.73678 -0.63339,0.002 -2.02152,0.69939 -3.0847,1.55015 -2.46621,1.97346 -3.27258,7.47341 -1.49374,10.18824 1.21848,1.85964 1.87045,2.03094 3.79979,0.99839 z m -125.1605,34.5318 c -6.84123,-2.47293 -16.42618,-11.68079 -21.04292,-20.21495 -4.48487,-8.29046 -5.61098,-11.68837 -5.61098,-16.93047 0,-3.22481 0.30134,-4.14182 2.06364,-6.2798 1.73134,-2.10041 2.48046,-2.50354 4.65226,-2.50354 2.83023,0 9.59284,3.18961 13.69298,6.45834 3.7848,3.01735 11.58471,13.0563 13.82707,17.79626 2.32104,4.90627 2.80334,10.41276 0.97355,11.1149 -1.06046,0.40694 -4.84919,-1.9121 -5.86124,-3.58765 -0.29537,-0.48905 -0.8803,-0.88914 -1.29986,-0.88914 -0.41955,0 -1.41212,-0.60997 -2.20566,-1.35549 -0.79358,-0.74551 -3.23073,-2.5239 -5.41594,-3.95194 -3.64598,-2.3827 -3.99147,-2.48665 -4.19663,-1.26252 -0.12294,0.73364 -0.0307,2.10223 0.20497,3.0413 0.58153,2.31698 7.99773,9.92876 10.64283,10.92349 1.17468,0.44178 3.00321,1.12583 4.06338,1.52018 2.29318,0.85294 3.98603,4.22148 3.02443,6.01821 -0.7585,1.41734 -3.76167,1.45841 -7.51188,0.10283 z m -3.42153,-27.38191 c 0.70553,-1.83856 -1.58526,-5.73391 -4.0684,-6.91803 -2.19014,-1.04441 -2.49423,-1.05158 -3.46406,-0.0818 -1.53408,1.53408 -0.62543,3.62148 2.59055,5.95112 2.9971,2.17108 4.39721,2.46816 4.94191,1.04865 z m 54.3352,28.04925 c -0.73874,-0.19039 -2.99109,-1.10675 -5.00523,-2.03638 -2.88049,-1.32947 -4.26814,-1.59933 -6.50195,-1.26433 l -2.83991,0.42586 0.0836,-16.90329 0.0836,-16.90327 -2.20211,-1.7973 c -4.72881,-3.85947 -1.26112,-7.77302 8.73407,-9.85709 6.81415,-1.4208 8.37049,-0.72724 8.91879,3.97446 0.2228,1.91051 0.25275,4.89751 0.0665,6.63772 -0.42419,3.96405 0.81479,4.95171 4.34794,3.46614 1.26962,-0.53383 4.04993,-1.15262 6.17841,-1.37512 4.37554,-0.45731 5.94386,0.24996 9.53942,4.30194 3.3457,3.77042 3.97432,5.46417 4.04831,10.90802 0.0602,4.42662 -0.20413,5.61381 -2.11767,9.51184 -2.21381,4.50973 -5.79978,8.10914 -9.82771,9.86457 -2.07854,0.90586 -11.28381,1.61892 -13.50592,1.04623 z m 7.52235,-6.63913 c 3.47666,-2.43518 3.73533,-12.52768 0.42197,-16.46539 -2.2211,-2.63963 -5.32984,-2.78273 -6.27797,-0.28898 -0.75534,1.98674 -0.15123,14.83072 0.78023,16.58853 0.76421,1.44217 3.14259,1.51989 5.07577,0.16593 z m 21.82571,2.88986 c -1.08786,-1.08784 -1.01679,-2.8841 0.15244,-3.85452 1.66662,-1.38319 3.07107,-6.82043 3.07107,-11.88956 0,-4.50481 -0.16387,-5.08053 -2.06181,-7.24216 -2.92393,-3.33014 -2.54792,-5.60326 1.25536,-7.58926 3.7257,-1.94545 12.73914,-5.5555 13.87078,-5.5555 2.52199,0 2.98786,2.75254 3.03184,17.91323 0.0203,7.00806 0.13267,7.63557 1.70071,9.49908 1.97112,2.34254 2.13808,4.21341 0.50369,5.64423 -3.33158,2.91659 -19.38849,5.21014 -21.52415,3.07446 z m 326.36754,-4.62912 c -2.97901,-0.61492 -6.01709,-3.63629 -6.88049,-6.84266 -0.38561,-1.43205 -0.66236,-5.07297 -0.61502,-8.09094 0.14409,-9.18401 0.16557,-9.08201 -2.49859,-11.84398 l -2.49301,-2.58447 -5.06228,0.36327 c -2.78426,0.1998 -5.42972,0.6534 -5.87881,1.00801 -0.56798,0.44849 -0.7724,2.85325 -0.67157,7.89999 0.12378,6.18488 0.34283,7.47367 1.48638,8.73594 1.10229,1.21673 1.85615,1.42273 4.2284,1.15534 4.87471,-0.54944 6.56948,3.0419 2.9928,6.34198 -6.09623,5.62483 -18.30192,4.59827 -22.82017,-1.9193 -2.1848,-3.15158 -2.37744,-4.2239 -2.53922,-14.13553 -0.17051,-10.44585 -0.54383,-11.58953 -3.78308,-11.58953 -1.41138,0 -2.15196,-0.45004 -2.69238,-1.63616 -1.05719,-2.32024 -0.38952,-3.46205 3.0523,-5.21982 1.65719,-0.84633 5.89067,-3.01585 9.4077,-4.82113 5.95459,-3.05645 6.53503,-3.22415 8.4355,-2.43694 1.86895,0.77412 2.04091,1.11453 2.04091,4.03956 0,3.71587 0.6025,4.35411 4.70107,4.97987 3.72586,0.56887 6.04425,2.01372 6.04425,3.76693 0,1.67752 1.04573,1.67396 4.54247,-0.0153 1.52899,-0.73873 3.37938,-1.34316 4.11189,-1.34316 0.73253,0 2.12181,-0.30032 3.08726,-0.66739 0.96547,-0.36707 3.1158,-0.71886 4.77853,-0.78173 4.85576,-0.18368 5.04296,0.27721 5.01001,12.33682 -0.0262,9.55167 0.089,10.58517 1.35785,12.19831 1.74977,2.22446 3.29996,2.23247 5.36919,0.0278 1.51651,-1.61583 1.62811,-2.23435 1.62811,-9.02233 0,-7.09249 -0.0512,-7.34096 -1.90887,-9.27995 -3.53893,-3.69369 -1.32399,-5.76645 8.28891,-7.75679 4.19877,-0.86933 6.18,-1.00217 7.49156,-0.5023 1.68722,0.64306 1.80221,0.97997 2.13703,6.26101 0.19461,3.06976 0.31782,8.50673 0.27381,12.08224 -0.0789,6.41269 -0.0517,6.52987 2.00629,8.63485 2.07913,2.12659 2.09203,2.12964 3.76425,0.88646 2.84118,-2.1122 3.98756,-5.37703 4.28081,-12.19191 l 0.26869,-6.24343 -2.22014,-2.07884 c -2.52244,-2.3619 -2.51914,-3.4371 0.019,-6.15822 2.12007,-2.27307 10.54705,-8.09384 12.70363,-8.77479 0.83108,-0.26243 1.51109,-0.75896 1.51109,-1.10345 0,-1.17179 2.13083,-0.63174 3.32468,0.8426 l 1.18945,1.4689 3.61925,-3.68249 c 5.95121,-6.05517 10.12832,-6.65838 12.95634,-1.87091 1.12549,1.9053 1.25438,1.95458 2.12137,0.81099 0.50769,-0.66964 0.93266,-1.4933 0.94442,-1.83032 0.0136,-0.33705 0.98764,-2.1503 2.16862,-4.02948 4.21439,-6.70587 11.03287,-14.15408 14.57575,-15.92181 0.96,-0.47903 2.15835,-1.17625 2.66294,-1.54938 1.50392,-1.11215 5.65444,-2.37828 7.8315,-2.38911 2.84576,-0.0153 4.84532,1.60704 5.76398,4.67319 1.10678,3.69396 -0.85229,7.72624 -5.36202,11.03669 -1.83967,1.35043 -3.44233,2.67784 -3.56161,2.94982 -0.1192,0.27197 -1.72778,1.46745 -3.57463,2.65659 -6.14799,3.95862 -8.62699,6.43334 -8.10184,8.08795 0.34607,1.09038 0.99767,1.47834 2.48286,1.47834 2.77065,0 4.49571,-1.03764 7.63372,-4.59177 1.47748,-1.67337 3.6199,-4.09255 4.76098,-5.37594 2.39937,-2.69866 3.63378,-2.39571 3.63378,0.89171 0,4.75093 -10.91754,17.8341 -18.86504,22.60715 -8.88234,5.33447 -14.38205,3.35701 -15.73382,-5.65719 -0.26304,-1.75418 -0.74272,-3.35285 -1.06594,-3.55261 -0.32323,-0.19975 -2.02607,0.73512 -3.78409,2.0775 -3.19018,2.43593 -5.68305,2.83906 -8.90487,1.44008 -2.32255,-1.0085 -3.02373,0.60425 -2.98171,6.85809 0.0421,6.25635 0.7311,8.1367 2.9817,8.1367 1.67463,0 2.87475,1.70614 2.35409,3.34662 -1.06413,3.35284 -8.52688,7.88645 -17.6085,10.69716 -4.528,1.40138 -4.83461,1.41507 -7.53173,0.33591 -2.7889,-1.11592 -2.82616,-1.1113 -4.61962,0.57415 -1.78301,1.67566 -10.47778,4.52198 -13.81338,4.52198 -0.8695,0 -2.34931,-0.60442 -3.28844,-1.34315 -2.20563,-1.73496 -2.89345,-1.68831 -6.53254,0.4429 -3.47737,2.03648 -7.41678,2.84463 -10.63159,2.18105 z m 94.13967,-56.49362 c 2.77785,-1.94908 3.74994,-3.23364 3.77601,-4.98966 0.0608,-4.10042 -5.75438,-0.5432 -6.46985,3.95762 -0.46541,2.92771 -0.1695,3.0411 2.69384,1.03204 z m -149.32299,53.23109 c -0.55405,-0.30775 -2.73737,-1.05852 -4.85178,-1.66835 -3.72683,-1.07487 -7.90826,-3.82662 -7.90826,-5.20437 0,-0.37186 0.63653,-1.57 1.41452,-2.66258 1.28009,-1.79775 1.39147,-2.71203 1.17207,-9.62296 -0.22154,-6.97859 -0.38241,-7.78552 -1.86737,-9.36618 -1.86965,-1.99016 -3.16607,-2.15846 -5.27084,-0.68422 -1.38008,0.96663 -1.49261,1.57318 -1.49261,8.04538 0,4.87356 0.32908,7.82236 1.08332,9.70741 0.86748,2.16798 0.91801,2.90671 0.25357,3.70727 -2.16797,2.61224 -13.89278,-0.47495 -18.96587,-4.99378 -2.24151,-1.99667 -2.30652,-2.94886 -0.33579,-4.91961 1.40618,-1.40616 1.51108,-2.09494 1.51108,-9.92313 0,-7.70703 -0.12687,-8.57303 -1.51108,-10.33218 -0.83107,-1.05605 -1.51106,-2.27194 -1.51106,-2.70197 0,-1.27426 4.14685,-2.39488 8.86218,-2.39488 7.36984,0 8.55101,0.44849 9.98368,3.79074 1.41434,3.29954 1.96623,3.45548 5.75349,1.62566 2.14326,-1.03551 3.22756,-1.1785 5.33886,-0.70412 9.13745,2.05304 13.69841,8.29717 13.72729,18.79305 0.019,6.92229 1.1469,14.13043 2.43345,15.55207 0.70216,0.77588 0.92347,1.77071 0.64271,2.88932 -0.39204,1.56201 -0.72471,1.70269 -3.94119,1.66652 -1.93215,-0.0218 -3.96631,-0.29132 -4.52037,-0.59909 z m -103.35455,-3.77178 c -1.0172,-0.85593 -3.43641,-4.82246 -5.37605,-8.81453 -1.9396,-3.99208 -3.79817,-7.71162 -4.13012,-8.26569 -0.33192,-0.55404 -1.76799,-3.25601 -3.19121,-6.00434 -2.47792,-4.78502 -4.28446,-6.85607 -5.19026,-5.95028 -0.23216,0.23216 -0.47274,4.75465 -0.53467,10.04996 -0.111,9.50262 -0.0884,9.66181 1.73306,12.23999 2.21579,3.13608 2.24181,3.41419 0.43763,4.6779 -1.26343,0.88496 -1.864,0.82075 -5.85,-0.62503 -5.66985,-2.05653 -10.67746,-5.46876 -11.50359,-7.83868 -0.60553,-1.73703 -1.51082,-2.15193 -4.14501,-1.89965 -1.27484,0.12191 -6.13847,-1.82612 -8.99348,-3.60247 -1.10812,-0.68947 -3.07249,-2.57975 -4.36526,-4.20063 -1.29282,-1.62091 -2.91667,-3.57614 -3.60858,-4.34496 -0.69194,-0.76882 -1.65129,-2.15585 -2.13192,-3.08229 -0.64848,-1.24994 -1.51379,-1.74178 -3.35494,-1.90702 -1.3646,-0.12243 -3.16449,-0.67042 -3.99979,-1.21775 -1.98612,-1.30135 -7.03872,-8.89313 -7.51989,-11.29903 -0.25084,-1.25419 -1.74497,-2.97689 -4.48737,-5.17381 -4.93832,-3.95604 -6.11962,-5.304 -6.71013,-7.65677 -0.24687,-0.98359 -0.70985,-1.78837 -1.02884,-1.78837 -0.56765,0 -3.02763,-4.78825 -4.80015,-9.34322 -1.06831,-2.74539 -1.09051,-8.03318 -0.0419,-9.99246 1.22277,-2.28478 4.44568,-0.73628 9.24924,4.44389 l 4.13737,4.46178 0.46817,-2.49559 c 0.6772,-3.60977 -1.43175,-7.5274 -4.11148,-7.6376 -3.76593,-0.15484 -5.34996,-1.33639 -7.54708,-5.62927 -1.16663,-2.27946 -2.12118,-4.26176 -2.12118,-4.40511 0,-0.14341 0.94853,-0.75114 2.10783,-1.35063 2.48411,-1.28458 3.83196,-0.84604 7.61876,2.4788 2.55957,2.24733 9.74925,11.52433 9.74925,12.57969 0,0.3214 0.68442,1.6087 1.52092,2.86071 2.6238,3.92706 5.44129,11.94241 6.21055,17.66824 0.2441,1.81688 0.64431,2.98521 0.88935,2.59628 0.94463,-1.4994 5.64201,-3.5492 8.13345,-3.5492 3.41367,0 8.12905,2.0651 12.30193,5.38758 1.84532,1.46927 3.76895,2.67138 4.27478,2.67138 1.3714,0 1.10877,-2.05497 -0.59393,-4.64704 -3.21398,-4.89275 -3.25797,-5.02064 -2.03998,-5.93034 1.73118,-1.29302 3.44708,-1.01616 9.16026,1.47805 7.93883,3.46582 9.54503,4.76765 10.34026,8.38084 0.3715,1.68798 0.53574,4.14357 0.36497,5.45692 -0.19804,1.52308 0.0195,2.66175 0.6008,3.14415 0.50121,0.41596 4.22948,0.96681 8.28511,1.22411 6.10978,0.38764 7.9494,0.77185 10.73169,2.24144 3.58885,1.89558 4.82951,4.4166 2.74708,5.58194 -2.67339,1.49613 0.37179,8.92579 3.65839,8.92579 1.21666,0 2.00193,-0.65494 2.98544,-2.48999 1.18741,-2.21542 1.23559,-2.73375 0.43694,-4.70104 -1.89974,-4.67965 -1.82196,-5.04946 1.16813,-5.55462 4.68443,-0.79142 11.18989,0.23842 12.88168,2.03924 1.84047,1.9591 1.35002,3.42461 -1.55178,4.63708 -2.78505,1.16366 -4.01983,2.60465 -5.48849,6.40513 -0.64235,1.66217 -1.54896,3.47541 -2.01472,4.02948 -0.77114,0.91735 -2.28108,3.52011 -6.42851,11.08108 -3.21304,5.85759 -6.15836,7.32695 -9.33266,4.65596 z m -35.32379,-22.02083 c 1.31247,-3.1411 0.8144,-11.84287 -0.86367,-15.08977 -1.45549,-2.81623 -4.00288,-4.45484 -5.27904,-3.39575 -2.24828,1.86593 -2.56205,12.71983 -0.48672,16.83746 0.98893,1.96216 3.37311,3.90237 4.79534,3.90237 0.49072,0 1.31606,-1.01446 1.83409,-2.25431 z m -38.61893,-34.61542 c 0,-1.59933 -1.91107,-4.09671 -3.13494,-4.09671 -0.84236,0 -0.95313,0.48643 -0.5734,2.51845 0.61636,3.29827 1.56337,4.46991 2.79007,3.45185 0.50505,-0.41917 0.91827,-1.26228 0.91827,-1.87359 z m 108.91981,54.95163 c -1.85345,-0.94416 -3.72981,-2.71112 -5.20474,-4.90125 -2.20611,-3.27589 -2.30639,-3.68961 -2.30639,-9.51443 0,-5.53028 0.17444,-6.36467 1.89933,-9.08453 2.4765,-3.90506 7.65418,-8.46323 11.86806,-10.44803 3.70892,-1.747 9.51829,-2.11451 13.95364,-0.88282 5.34886,1.48543 9.16162,6.86809 8.2619,11.66388 -0.73209,3.90239 -2.63192,4.7903 -13.82076,6.45909 -6.13033,0.91432 -7.10419,1.39458 -6.86817,3.38686 0.31571,2.66493 2.40029,3.97014 6.33637,3.96735 3.37202,-0.003 4.58861,-0.48701 8.66735,-3.45257 2.21418,-1.6099 4.46652,0.64554 3.6989,3.70396 -0.44157,1.7594 -5.50434,7.13851 -6.71869,7.13851 -0.42372,0 -1.97477,0.65508 -3.44677,1.45578 -4.07865,2.21849 -12.45073,2.47918 -16.32003,0.5082 z m 14.07294,-24.08542 c 1.50043,-1.2326 1.53024,-1.40365 0.55563,-3.19 -0.57255,-1.04945 -1.71997,-1.98668 -2.58415,-2.11077 -2.13126,-0.30609 -4.78077,2.30176 -4.78077,4.70554 0,1.75723 0.1933,1.8977 2.61191,1.8977 1.59195,0 3.23103,-0.50864 4.19738,-1.30247 z m -327.97902,18.72329 c -6.88458,-2.51741 -18.65004,-11.74467 -18.65004,-14.62664 0,-0.3884 0.82272,-1.10048 1.82829,-1.58244 2.4969,-1.19672 3.01243,-4.51322 2.58947,-16.65812 -0.37208,-10.68338 -0.85007,-13.04105 -3.4362,-16.94896 -3.86721,-5.84374 0.28572,-6.84613 10.33281,-2.49402 3.56537,1.54445 7.02121,3.32037 7.67961,3.94654 1.09463,1.041 1.20031,2.85783 1.23458,21.2255 0.039,20.91933 0.27514,22.82562 3.01743,24.36031 1.20251,0.67294 0.78997,3.16055 -0.60573,3.65241 -0.44766,0.15773 -2.24326,-0.23578 -3.99022,-0.87458 z M 62.648734,517.41745 c 0,-0.79622 0.831095,-2.53391 1.846846,-3.8616 1.814977,-2.37226 1.850786,-2.60409 2.074406,-13.43775 0.29193,-14.14202 -0.04348,-16.46368 -2.595923,-17.97147 -2.633078,-1.55542 -2.927975,-2.66529 -1.371847,-5.16312 2.085983,-3.34832 16.515898,-16.5459 18.090886,-16.5459 1.348111,0 2.196565,2.78048 2.011364,6.59144 -0.353863,7.28122 0.01023,10.86967 1.099067,10.86967 0.554036,0 1.54617,-0.5289 2.204734,-1.17527 3.962023,-3.88888 16.585993,-10.18796 17.861473,-8.91251 0.343,0.343 0.77021,5.95298 0.9494,12.46665 0.30879,11.22569 0.40841,11.94123 1.91143,13.72743 2.32109,2.75849 2.05356,4.90079 -0.91788,7.3501 -1.37699,1.13502 -3.0213,2.06367 -3.65409,2.06367 -0.63278,0 -1.31662,0.26879 -1.5197,0.59736 -0.20306,0.32856 -1.354183,0.76006 -2.558064,0.95885 -1.203874,0.19881 -3.548825,0.72173 -5.21098,1.16208 -1.662154,0.44035 -4.240144,0.83995 -5.728862,0.88801 -2.004475,0.0646 -3.659829,0.77946 -6.380009,2.75488 -6.699476,4.86507 -8.345383,5.91747 -11.732226,7.50152 -4.33698,2.02842 -6.380025,2.07197 -6.380025,0.13591 z m 24.843818,-18.01942 c 1.086347,-2.02984 1.517077,-11.89997 0.63587,-14.57008 -0.972149,-2.94568 -3.815631,-4.27985 -5.191078,-2.4357 -1.019724,1.36718 -1.018325,15.08336 0.0015,17.16491 0.784902,1.6017 3.664996,1.50102 4.553473,-0.15909 z m 77.043158,7.3164 c -4.48425,-1.05573 -8.17003,-3.11838 -10.29226,-5.75979 -4.20912,-5.23883 -4.56555,-6.47538 -4.94527,-17.15671 -0.44483,-12.51301 -0.16384,-12.15478 -9.43476,-12.02762 -3.76346,0.0517 -7.1125,0.26062 -7.44226,0.46444 -0.32979,0.20383 -0.59962,3.82818 -0.59962,8.05414 0,6.9259 0.14,7.82348 1.41956,9.10307 1.19866,1.19867 1.91674,1.35359 4.61475,0.9957 3.06709,-0.40688 3.22812,-0.34434 4.01681,1.55968 0.70423,1.70019 0.64462,2.22433 -0.41737,3.66955 -0.68144,0.92735 -2.75005,2.52218 -4.5969,3.54412 -2.83144,1.56679 -4.12384,1.85258 -8.24321,1.82292 -4.31775,-0.0312 -5.21507,-0.269 -7.7232,-2.04764 -4.69498,-3.32944 -5.83547,-6.46442 -5.9474,-16.34881 -0.1093,-9.64758 -0.54283,-11.40457 -2.81394,-11.40457 -1.75805,0 -3.81441,-1.88112 -3.81441,-3.48934 0,-1.11834 6.41104,-5.64901 13.48739,-9.53142 6.9789,-3.82897 10.01792,-3.09095 10.01792,2.43278 0,2.9504 1.01982,3.87218 4.28403,3.87218 1.46971,0 3.63048,0.34652 4.8017,0.77003 2.21849,0.80221 3.60638,0.48025 14.69174,-3.40836 7.28547,-2.55565 9.23393,-1.73255 10.17982,4.30026 l 0.62912,4.01252 3.3579,1.28244 c 5.86414,2.23964 6.23527,2.50502 6.58235,4.70676 0.49942,3.16787 -0.74249,4.07005 -4.67668,3.39733 -1.78687,-0.30555 -3.54973,-0.57048 -3.91749,-0.58877 -2.56192,-0.12722 -2.4535,15.27576 0.12572,17.85493 0.74992,0.74993 2.46125,1.43566 3.85985,1.54659 5.75058,0.45632 6.68083,5.20018 1.5105,7.70309 -3.09662,1.49908 -4.67817,1.62075 -8.71434,0.6705 z m 144.0794,-5.63871 c -0.88215,-0.63695 -1.51104,-1.799 -1.51104,-2.79213 0,-3.16893 6.49702,-7.32427 12.49536,-7.99174 3.72736,-0.41476 4.23166,-0.3156 5.54054,1.08931 1.79263,1.92415 1.79988,2.66834 0.0477,4.8959 -3.47471,4.41741 -13.20031,7.2335 -16.57251,4.79866 z M 85.480951,467.28723 c -1.48369,-1.20139 -1.552291,-1.48786 -0.768429,-3.20821 1.196281,-2.62554 4.694046,-5.44986 9.654839,-7.79593 4.270016,-2.01939 6.971129,-2.1573 9.015879,-0.46032 3.85888,3.2026 -4.574513,11.02934 -13.292919,12.33673 -2.403916,0.3605 -3.295277,0.19182 -4.60937,-0.87227 z"
     id="path2880" />
</svg>
